<svg width="730" height="300" xmlns="http://www.w3.org/2000/svg">

 <metadata>image/svg+xmlOpenclipartCaption Balloon 42012-12-02T20:29:42https://openclipart.org/detail/173492/caption-balloon-4-by-tikigiki-173492TikiGikiabstractcaptioncomicfree formfreeformheadlineretroshapeshapestext</metadata>
 <g>
  <title>background</title>
  <rect fill="none" id="canvas_background" height="302" width="732" y="-1" x="-1"/>
 </g>
 <g>
  <title>Layer 1</title>
  <path stroke="null" id="svg_1" fill="#ffffff" d="m59.544085,39.402909c-5.996304,-1.091257 -11.990655,-2.380403 -18.151028,-2.748935c3.521608,2.919579 7.996375,5.024658 11.922294,7.591478c31.395634,18.88692 63.082293,37.497083 93.4525,57.36341c2.480556,1.791038 6.248266,3.256563 6.47093,6.197652c-0.095706,2.429158 -0.400405,4.958695 -1.712951,7.205738c-3.382931,-1.287712 -4.127098,-5.107829 -8.240524,-5.49787c-0.095706,8.793151 0.003906,17.592038 0,26.390926c-1.011754,12.230396 -2.869241,24.436414 -5.580274,36.517676c-2.861429,14.424382 -6.390849,28.79714 -7.648706,43.374957c-0.380873,6.626411 -1.152384,13.303011 -0.095706,19.92512c2.433679,11.29831 9.7855,22.615262 22.645326,28.867405c5.111508,2.718822 11.310944,3.734078 17.350219,4.445331c20.108128,2.420554 40.145941,-1.610357 60.117345,-2.999881c8.429983,-0.316909 16.774026,-1.355109 25.147367,-2.133759c22.114058,-2.17391 44.122643,-5.013186 66.324594,-6.670864c9.986679,-0.567855 19.947966,-1.65481 29.989334,-1.596017c9.765968,-0.150568 19.485059,-1.277674 29.266653,-1.114201c7.123297,0.073133 14.281751,-0.293965 21.358172,0.450269c4.2814,0.434495 8.588192,0.714121 12.91061,0.725593c52.404184,2.397611 103.986073,10.29596 155.819924,16.252703c7.490497,1.089823 15.102093,1.512846 22.664858,2.179646c6.396709,0.728461 12.881312,0.279626 19.315131,0.417288c5.804891,0.149134 11.488685,-0.887632 17.252559,-1.226051c13.03952,-0.92635 25.66301,-4.452501 36.723946,-9.825615c9.347984,-4.730692 17.567023,-11.025855 22.858224,-18.67756c5.5041,-7.402193 6.47093,-16.238363 6.00607,-24.592718c-0.570333,-8.59813 -2.021555,-17.146071 -3.000105,-25.719824c-1.406299,-15.679112 -1.812564,-31.517396 1.349657,-47.083224c2.734471,-15.035256 7.662378,-29.855416 8.590145,-45.072787c0.167975,-6.583392 0.466813,-13.245652 -1.418019,-19.712891c-3.67591,-11.993789 -12.695758,-23.006738 -25.299716,-30.593914c-8.541316,-5.102093 -19.123718,-7.597214 -29.620181,-9.029758c-7.554953,-0.930652 -15.09428,-1.967417 -22.68439,-2.72169c-5.242372,0.093209 -10.469118,-0.600837 -15.703676,-0.176379c-5.713091,0.352759 -11.46134,-0.120454 -17.166618,0.424457c-24.735244,1.167258 -49.404078,3.008485 -74.096352,4.605936c-8.176068,0.847481 -16.432218,1.00235 -24.621958,1.733679c-16.336511,0.893368 -32.661303,1.812548 -49.027112,2.347421c-14.01807,0.120454 -28.042,0.172077 -42.06593,-0.077435c-10.275751,0.187851 -20.557362,0.083171 -30.838973,0.088907c-6.404522,-0.435929 -12.793418,-1.167258 -19.225284,-1.376619c-36.421201,-2.551046 -72.559188,-7.493967 -109.15813,-8.494884c-9.799172,-0.435929 -19.645221,-0.314041 -29.430721,0.213663c-10.965229,0.226568 -21.981241,2.242741 -31.598766,6.375465c-6.672109,2.986976 -12.840295,7.029359 -16.750588,12.214622c6.267798,2.46931 13.46141,2.793389 20.004609,4.561483c0,1.13571 -0.476579,2.463574 -1.953194,2.953994c-3.07042,0.61661 -5.791219,-1.029596 -8.658507,-1.570206c-8.205366,-1.626131 -16.39706,-3.31679 -24.389528,-5.470625c-7.484638,-1.471261 -15.020059,-2.82637 -22.326956,-4.809561c-2.273517,-0.661064 -4.529456,-1.38809 -6.916258,-1.819718c-20.274149,-3.407131 -39.942809,-8.685603 -60.060703,-12.607532l-0.099613,-0.004302z"/>
  <path stroke="null" id="svg_2" fill="#231F20" d="m23.256053,25.594278c-2.498287,-0.569796 -4.940105,-1.404346 -7.553278,-1.592839c-1.520781,-0.056116 -2.163365,1.503628 -1.357214,2.377027c1.592828,2.680631 3.335593,5.411622 6.133752,7.473536c2.556704,1.896442 4.568185,4.218792 7.489019,5.804436c3.355065,1.859031 6.842541,3.56698 10.326123,5.274929c4.500032,2.34825 8.559992,5.162696 13.028869,7.545479c2.077687,1.122325 4.017121,2.40005 5.876719,3.738207c2.82542,2.069107 6.180486,3.637485 9.146106,5.577094c2.901362,1.624494 5.423016,3.650435 8.534678,5.047586c2.65017,1.177003 4.422143,3.20726 7.054789,4.38858c3.09219,1.408662 5.800777,3.218771 8.48405,5.041831c3.466057,2.105079 5.925399,5.002981 9.379773,7.115255c3.448532,2.935312 7.880411,4.946865 11.883901,7.368497c7.226144,4.283542 14.208886,8.817448 20.765185,13.709635c1.359162,1.056137 2.788423,2.248967 2.95199,3.820223c0.638689,4.356924 0.669845,8.75126 0.989189,13.124012c0.882092,6.767046 0.482911,13.606036 -1.022292,20.298261c-4.52924,25.568873 -15.536892,50.300319 -17.449065,76.168478c-0.889881,5.142552 0.387497,10.263521 1.185859,15.355713c1.148862,6.106601 4.449404,11.781538 7.078155,17.558636c1.659034,4.207281 4.096957,8.303768 7.8882,11.623261c8.427581,7.50663 20.32706,12.837675 33.159259,13.993095c5.662524,0.569796 11.375676,1.048943 17.090776,1.034554c21.738797,-0.135255 43.101779,-3.765545 64.772423,-4.608728c2.585912,-0.014389 5.150405,0.866205 7.718792,0.303603c18.679709,-3.470575 37.970847,-3.64468 57.034159,-4.743983c7.150203,-0.200004 14.232252,-1.15542 21.384402,-1.171247c13.996638,-0.784189 28.036115,-0.244609 42.02107,0.421591c2.981198,0.070505 6.108438,0.798578 8.955278,-0.224465c6.118174,-2.06623 12.721207,-0.21871 19.028262,0.041727c12.984082,0.463319 25.940904,1.259019 38.874358,2.231701c18.572612,1.087792 37.045916,3.013012 55.546481,4.614484c14.160205,-0.056116 28.01859,2.512282 42.050279,3.568419c3.543946,0.151082 7.103469,-0.132377 10.649362,0.146766c21.746585,2.135296 43.473699,5.413061 65.490948,4.938231c12.886721,0.286337 25.827965,-1.028798 38.185041,-3.892167c4.733699,-1.118009 9.424559,-2.405805 13.774655,-4.263397c5.432752,-2.312278 10.955076,-4.594339 15.647883,-7.784333c4.626602,-2.779913 7.224197,-6.94115 10.571473,-10.558491c2.29967,-2.368394 3.216812,-5.272051 4.677229,-7.95556c1.466259,-2.733869 2.611226,-5.572777 3.275229,-8.483628c2.583965,-14.777283 -2.998723,-29.358879 -3.269387,-44.094435c-1.943328,-12.387306 -0.590009,-24.927133 1.672664,-37.233862c2.683273,-14.092377 6.776336,-27.98475 10.092456,-41.987917c1.111864,-5.126725 2.698851,-10.244816 2.506076,-15.469384c-0.013631,-7.440441 -2.513865,-14.682317 -4.969313,-21.814839c-1.509098,-3.005817 -4.492243,-5.368456 -6.776336,-8.021748c-3.30249,-3.205822 -5.510641,-7.026044 -9.196734,-10.000206c-5.261396,-4.218792 -10.372856,-8.663488 -16.970048,-11.664989c-15.540786,-8.867809 -34.896182,-11.95852 -53.6051,-14.030505c-14.870941,-1.178442 -29.833402,-0.951099 -44.754971,-0.83455c-34.432743,0.7957 -68.795385,3.001501 -103.206709,4.261958c-6.897064,0.132377 -13.761024,0.723756 -20.665877,0.541018c-8.542467,0.536702 -17.108301,0.336698 -25.674134,0.381303c-16.348884,0.712245 -32.717239,-0.161154 -49.083648,-0.03885c-6.157119,-0.47483 -12.364865,-0.175543 -18.53172,-0.607207c-31.326922,-1.24463 -62.558431,-3.637485 -93.844461,-5.356945c-20.940435,-1.674855 -42.153482,-3.034595 -63.142597,-0.982754c-7.816153,1.087792 -15.780294,2.071985 -23.105747,4.565562c-10.27939,3.825978 -17.246553,11.139798 -23.761961,18.126993c-4.278049,-0.176982 -8.304906,-1.553989 -12.477804,-2.227384c-25.043234,-5.798681 -50.068943,-11.659233 -75.180329,-17.280932c-15.597256,-3.479208 -31.233456,-6.867768 -46.73335,-10.647702m37.269847,13.616108c20.070027,3.935333 39.678561,9.231845 59.925785,12.641988c2.377559,0.431664 4.624654,1.162614 6.895116,1.825937c7.274825,1.989969 14.795,3.349709 22.256758,4.825999c7.971931,2.161196 16.136636,3.859072 24.313025,5.489322c2.86047,0.541018 5.565163,2.19429 8.633986,1.575572c1.472101,-0.492096 1.947223,-1.824498 1.947223,-2.96409c-6.530986,-1.774137 -13.694819,-2.099324 -19.943457,-4.577073c3.89834,-5.201546 10.04767,-9.259184 16.699384,-12.256368c9.588126,-4.145409 20.568516,-6.169911 31.502172,-6.397254c9.759481,-0.530946 19.579326,-0.651812 29.340755,-0.214393c36.479274,1.005776 72.510687,5.965591 108.824447,8.523917c6.412205,0.210076 12.779624,0.945343 19.168462,1.381323c10.250181,-0.004317 20.498416,0.099283 30.744703,-0.08921c13.981061,0.248926 27.960174,0.198565 41.935393,0.077699c16.315781,-0.536702 32.588723,-1.459023 48.877242,-2.355444c8.164706,-0.735267 16.395617,-0.890666 24.546692,-1.739604c24.616792,-1.602911 49.210217,-3.450431 73.869848,-4.621678c5.687838,-0.546774 11.418515,-0.071944 17.114142,-0.425908c5.218557,-0.425908 10.429326,0.270509 15.655672,0.176982c7.566908,0.75685 15.085136,1.797159 22.615047,2.728114c10.464376,1.43744 21.01443,3.941089 29.529635,9.060619c12.512854,7.615985 21.503183,18.666572 25.169803,30.701353c1.87907,6.489343 1.581145,13.172934 1.466259,19.780264c-0.924931,15.26938 -5.837774,30.14019 -8.563886,45.226833c-3.152554,15.617588 -2.747532,31.515758 -1.345531,47.24414c0.975559,8.600177 2.420398,17.177333 2.990934,25.804849c0.463439,8.385785 -0.498489,17.252155 -5.98771,24.679646c-5.275027,7.677856 -13.468941,13.99885 -22.78835,18.744272c-11.027123,5.384284 -23.612025,8.922486 -36.611685,9.856319c-5.744308,0.342453 -11.410726,1.382762 -17.19982,1.233119c-6.414152,-0.14101 -12.876985,0.309359 -19.256087,-0.418714c-7.539647,-0.669079 -15.127975,-1.099303 -22.595575,-2.188534c-51.675402,-5.97998 -103.101559,-13.902445 -155.343602,-16.30825c-4.309204,-0.011511 -8.602831,-0.292092 -12.871143,-0.728073c-7.054789,-0.748217 -14.187466,-0.382742 -21.292883,-0.454686c-9.755587,-0.156838 -19.441074,0.969804 -29.181083,1.120886c-10.010673,-0.058994 -19.935668,1.034554 -29.897661,1.598594c-22.130188,1.663344 -44.073443,4.519518 -66.117954,6.693663c-8.351639,0.784189 -16.668228,1.828815 -25.074389,2.143929c-19.912302,1.394273 -39.88302,5.437522 -59.92968,3.007256c-6.024708,-0.707928 -12.201299,-1.728093 -17.301076,-4.457646c-12.820516,-6.27495 -20.147915,-17.629141 -22.574155,-28.966065c-1.053448,-6.640425 -0.284295,-13.339844 0.093467,-19.993218c1.255959,-14.630518 4.774591,-29.04952 7.625325,-43.526078c2.712482,-12.123991 4.564291,-24.367409 5.565163,-36.639605c0.003894,-8.828959 -0.097361,-17.657918 0,-26.481122c4.096957,0.391375 4.834954,4.224548 8.215333,5.516661c1.310481,-2.254723 1.612301,-4.792905 1.707714,-7.230365c-0.218089,-2.952579 -3.978176,-4.423113 -6.45115,-6.218833c-30.318261,-19.911202 -61.902216,-38.586408 -93.194089,-57.536439c-3.917812,-2.575593 -8.382795,-4.687867 -11.885849,-7.617423c6.133752,0.378425 12.092254,1.671977 18.089701,2.766964l0.087625,-0.020144z"/>
 </g>
</svg>