<?xml version="1.0" encoding="UTF-8" standalone="no"?>
<svg
   xmlns:dc="http://purl.org/dc/elements/1.1/"
   xmlns:cc="http://creativecommons.org/ns#"
   xmlns:rdf="http://www.w3.org/1999/02/22-rdf-syntax-ns#"
   xmlns:svg="http://www.w3.org/2000/svg"
   xmlns="http://www.w3.org/2000/svg"
   xmlns:sodipodi="http://sodipodi.sourceforge.net/DTD/sodipodi-0.dtd"
   xmlns:inkscape="http://www.inkscape.org/namespaces/inkscape"
   width="780"
   height="340"
   version="1.1"
   id="svg914"
   sodipodi:docname="bubble.svg"
   inkscape:version="1.0 (4035a4fb49, 2020-05-01)">
  <defs
     id="defs918" />
  <sodipodi:namedview
     inkscape:document-rotation="0"
     pagecolor="#ffffff"
     bordercolor="#666666"
     borderopacity="1"
     objecttolerance="10"
     gridtolerance="10"
     guidetolerance="10"
     inkscape:pageopacity="0"
     inkscape:pageshadow="2"
     inkscape:window-width="1920"
     inkscape:window-height="986"
     id="namedview916"
     showgrid="false"
     inkscape:zoom="0.96369863"
     inkscape:cx="410.54699"
     inkscape:cy="177.45127"
     inkscape:window-x="-11"
     inkscape:window-y="-11"
     inkscape:window-maximized="1"
     inkscape:current-layer="svg914" />
  <metadata
     id="metadata901">image/svg+xmlOpenclipartCaption Balloon 42012-12-02T20:29:42https://openclipart.org/detail/173492/caption-balloon-4-by-tikigiki-173492TikiGikiabstractcaptioncomicfree formfreeformheadlineretroshapeshapestext<rdf:RDF>
  <cc:Work
     rdf:about="">
    <dc:format>image/svg+xml</dc:format>
    <dc:type
       rdf:resource="http://purl.org/dc/dcmitype/StillImage" />
    <dc:title></dc:title>
  </cc:Work>
</rdf:RDF>
</metadata>
  <g
     id="g1490"
     transform="matrix(1.070879,0,0,1.1236956,0.07087902,0.12369562)">
    <g
       id="g906">
      <title
         id="title903">background</title>
      <rect
         x="-1"
         y="-1"
         width="732"
         height="302"
         id="canvas_background"
         fill="none" />
    </g>
    <g
       id="g912">
      <title
         id="title908">Layer 1</title>
      <path
         d="M 59.544085,39.402909 C 53.547781,38.311652 47.55343,37.022506 41.393057,36.653974 c 3.521608,2.919579 7.996375,5.024658 11.922294,7.591478 31.395634,18.88692 63.082289,37.497083 93.452499,57.363408 2.48056,1.79104 6.24827,3.25657 6.47093,6.19765 -0.0957,2.42916 -0.4004,4.9587 -1.71295,7.20574 -3.38293,-1.28771 -4.1271,-5.10783 -8.24052,-5.49787 -0.0957,8.79315 0.004,17.59204 0,26.39093 -1.01176,12.23039 -2.86924,24.43641 -5.58028,36.51767 -2.86143,14.42439 -6.39085,28.79714 -7.6487,43.37496 -0.38088,6.62641 -1.15239,13.30301 -0.0957,19.92512 2.43368,11.29831 9.7855,22.61526 22.64533,28.86741 5.1115,2.71882 11.31094,3.73407 17.35022,4.44533 20.10812,2.42055 40.14594,-1.61036 60.11734,-2.99988 8.42998,-0.31691 16.77403,-1.35511 25.14737,-2.13376 22.11406,-2.17391 44.12264,-5.01319 66.32459,-6.67087 9.98668,-0.56785 19.94797,-1.65481 29.98933,-1.59601 9.76597,-0.15057 19.48506,-1.27768 29.26666,-1.11421 7.12329,0.0731 14.28175,-0.29396 21.35817,0.45027 4.2814,0.4345 8.58819,0.71412 12.91061,0.7256 52.40418,2.39761 103.98607,10.29596 155.81992,16.2527 7.4905,1.08982 15.1021,1.51285 22.66486,2.17965 6.39671,0.72846 12.88131,0.27962 19.31513,0.41728 5.80489,0.14914 11.48869,-0.88763 17.25256,-1.22605 13.03952,-0.92635 25.66301,-4.4525 36.72395,-9.82561 9.34798,-4.73069 17.56702,-11.02586 22.85822,-18.67756 5.5041,-7.4022 6.47093,-16.23837 6.00607,-24.59272 -0.57033,-8.59813 -2.02155,-17.14607 -3.0001,-25.71982 -1.4063,-15.67912 -1.81257,-31.5174 1.34965,-47.08323 2.73447,-15.03525 7.66238,-29.85541 8.59015,-45.07279 0.16797,-6.583387 0.46681,-13.245647 -1.41802,-19.712886 -3.67591,-11.993789 -12.69576,-23.006738 -25.29972,-30.593914 -8.54131,-5.102093 -19.12371,-7.597214 -29.62018,-9.029758 -7.55495,-0.930652 -15.09428,-1.967417 -22.68439,-2.72169 -5.24237,0.09321 -10.46912,-0.600837 -15.70367,-0.176379 -5.71309,0.352759 -11.46134,-0.120454 -17.16662,0.424457 -24.73524,1.167258 -49.40408,3.008485 -74.09635,4.605936 -8.17607,0.847481 -16.43222,1.00235 -24.62196,1.733679 -16.33651,0.893368 -32.6613,1.812548 -49.02711,2.347421 -14.01807,0.120454 -28.042,0.172077 -42.06593,-0.07744 -10.27575,0.187851 -20.55736,0.08317 -30.83898,0.08891 -6.40452,-0.435929 -12.79341,-1.167258 -19.22528,-1.376619 -36.4212,-2.551046 -72.55919,-7.493967 -109.15813,-8.494884 -9.79917,-0.435929 -19.64522,-0.314041 -29.43072,0.213663 -10.96523,0.226568 -21.98124,2.242741 -31.59877,6.375465 -6.67211,2.986976 -12.84029,7.029359 -16.75058,12.214622 6.26779,2.46931 13.46141,2.793389 20.0046,4.561483 0,1.13571 -0.47657,2.463574 -1.95319,2.953994 -3.07042,0.61661 -5.79122,-1.029596 -8.65851,-1.570206 -8.20536,-1.626131 -16.39706,-3.31679 -24.38952,-5.470625 -7.48464,-1.471261 -15.02006,-2.82637 -22.32696,-4.809561 -2.27352,-0.661064 -4.52946,-1.38809 -6.91626,-1.819718 C 99.430252,48.607611 79.761592,43.329139 59.643698,39.40721 l -0.09961,-0.0043 z"
         fill="#ffffff"
         id="svg_1"
         stroke="null" />
      <path
         d="m 23.256053,25.594278 c -2.498287,-0.569796 -4.940105,-1.404346 -7.553278,-1.592839 -1.520781,-0.05612 -2.163365,1.503628 -1.357214,2.377027 1.592828,2.680631 3.335593,5.411622 6.133752,7.473536 2.556704,1.896442 4.568185,4.218792 7.489019,5.804436 3.355065,1.859031 6.842541,3.56698 10.326123,5.274929 4.500032,2.34825 8.559992,5.162696 13.028869,7.545479 2.077687,1.122325 4.017121,2.40005 5.876719,3.738207 2.82542,2.069107 6.180486,3.637485 9.146106,5.577094 2.901362,1.624494 5.423016,3.650435 8.534678,5.047586 2.65017,1.177003 4.422143,3.20726 7.054789,4.38858 3.09219,1.408662 5.800777,3.218771 8.48405,5.041831 3.466057,2.105079 5.925399,5.002981 9.379773,7.115255 3.448531,2.935312 7.880411,4.946865 11.883901,7.368497 7.22614,4.283542 14.20889,8.817448 20.76518,13.709634 1.35917,1.05614 2.78843,2.24897 2.95199,3.82022 0.63869,4.35693 0.66985,8.75126 0.98919,13.12402 0.8821,6.76704 0.48291,13.60603 -1.02229,20.29826 -4.52924,25.56887 -15.53689,50.30032 -17.44906,76.16848 -0.88988,5.14255 0.38749,10.26352 1.18586,15.35571 1.14886,6.1066 4.4494,11.78154 7.07815,17.55863 1.65903,4.20729 4.09696,8.30377 7.8882,11.62327 8.42758,7.50662 20.32706,12.83767 33.15926,13.99309 5.66252,0.5698 11.37568,1.04894 17.09078,1.03455 21.73879,-0.13525 43.10177,-3.76554 64.77242,-4.60872 2.58591,-0.0144 5.1504,0.8662 7.71879,0.3036 18.67971,-3.47058 37.97085,-3.64468 57.03416,-4.74398 7.1502,-0.20001 14.23225,-1.15542 21.3844,-1.17125 13.99664,-0.78419 28.03612,-0.24461 42.02107,0.42159 2.9812,0.0705 6.10844,0.79858 8.95528,-0.22447 6.11817,-2.06623 12.72121,-0.2187 19.02826,0.0417 12.98408,0.46332 25.94091,1.25902 38.87436,2.2317 18.57261,1.08779 37.04592,3.01301 55.54648,4.61449 14.16021,-0.0561 28.01859,2.51228 42.05028,3.56842 3.54395,0.15108 7.10347,-0.13238 10.64936,0.14676 21.74659,2.1353 43.4737,5.41306 65.49095,4.93823 12.88672,0.28634 25.82796,-1.0288 38.18504,-3.89216 4.7337,-1.11801 9.42456,-2.40581 13.77466,-4.2634 5.43275,-2.31228 10.95507,-4.59434 15.64788,-7.78433 4.6266,-2.77992 7.2242,-6.94115 10.57147,-10.5585 2.29967,-2.36839 3.21681,-5.27205 4.67723,-7.95556 1.46626,-2.73386 2.61123,-5.57277 3.27523,-8.48362 2.58396,-14.77729 -2.99872,-29.35888 -3.26939,-44.09444 -1.94333,-12.3873 -0.59001,-24.92713 1.67267,-37.23386 2.68327,-14.09238 6.77633,-27.98475 10.09245,-41.98792 1.11187,-5.12672 2.69885,-10.24481 2.50608,-15.46938 -0.0136,-7.440442 -2.51387,-14.682318 -4.96931,-21.81484 -1.5091,-3.005817 -4.49225,-5.368456 -6.77634,-8.021748 -3.30249,-3.205822 -5.51064,-7.026044 -9.19673,-10.000206 -5.2614,-4.218792 -10.37286,-8.663488 -16.97005,-11.664989 -15.54079,-8.867809 -34.89618,-11.95852 -53.6051,-14.030505 -14.87094,-1.178442 -29.8334,-0.951099 -44.75497,-0.83455 -34.43275,0.7957 -68.79539,3.001501 -103.20671,4.261958 -6.89707,0.132377 -13.76103,0.723756 -20.66588,0.541018 -8.54247,0.536702 -17.1083,0.336698 -25.67413,0.381303 -16.34889,0.712245 -32.71724,-0.161154 -49.08365,-0.03885 -6.15712,-0.47483 -12.36487,-0.175543 -18.53172,-0.607207 -31.32692,-1.24463 -62.55843,-3.637485 -93.84446,-5.356945 -20.94044,-1.674855 -42.15348,-3.034595 -63.1426,-0.982754 -7.81615,1.087792 -15.78029,2.071985 -23.10575,4.565562 -10.27939,3.825978 -17.24655,11.139798 -23.76196,18.126993 -4.27805,-0.176982 -8.3049,-1.553989 -12.4778,-2.227384 C 120.16933,47.732865 95.143626,41.872313 70.03224,36.250614 54.434984,32.771406 38.798784,29.382846 23.29889,25.602912 M 60.568737,39.21902 c 20.070027,3.935333 39.678563,9.231845 59.925783,12.641988 2.37756,0.431664 4.62466,1.162614 6.89512,1.825937 7.27482,1.989969 14.795,3.349709 22.25676,4.825999 7.97193,2.161196 16.13663,3.859072 24.31302,5.489322 2.86047,0.541018 5.56516,2.19429 8.63399,1.575572 1.4721,-0.492096 1.94722,-1.824498 1.94722,-2.96409 -6.53099,-1.774137 -13.69482,-2.099324 -19.94346,-4.577073 3.89834,-5.201546 10.04767,-9.259184 16.69939,-12.256368 9.58812,-4.145409 20.56851,-6.169911 31.50217,-6.397254 9.75948,-0.530946 19.57932,-0.651812 29.34075,-0.214393 36.47928,1.005776 72.51069,5.965591 108.82445,8.523917 6.41221,0.210076 12.77962,0.945343 19.16846,1.381323 10.25018,-0.0043 20.49842,0.09928 30.74471,-0.08921 13.98106,0.248926 27.96017,0.198565 41.93539,0.0777 16.31578,-0.536702 32.58872,-1.459023 48.87724,-2.355444 8.16471,-0.735267 16.39562,-0.890666 24.54669,-1.739604 24.61679,-1.602911 49.21022,-3.450431 73.86985,-4.621678 5.68784,-0.546774 11.41852,-0.07194 17.11414,-0.425908 5.21856,-0.425908 10.42933,0.270509 15.65567,0.176982 7.56691,0.75685 15.08514,1.797159 22.61505,2.728114 10.46438,1.43744 21.01443,3.941089 29.52964,9.060619 12.51285,7.615985 21.50318,18.666572 25.1698,30.701353 1.87907,6.489343 1.58114,13.172934 1.46626,19.780266 -0.92493,15.26938 -5.83777,30.14019 -8.56389,45.22683 -3.15255,15.61759 -2.74753,31.51576 -1.34553,47.24414 0.97556,8.60018 2.4204,17.17733 2.99094,25.80485 0.46343,8.38578 -0.49849,17.25215 -5.98771,24.67964 -5.27503,7.67786 -13.46894,13.99885 -22.78835,18.74428 -11.02713,5.38428 -23.61203,8.92248 -36.61169,9.85632 -5.74431,0.34245 -11.41072,1.38276 -17.19982,1.23311 -6.41415,-0.14101 -12.87698,0.30936 -19.25609,-0.41871 -7.53964,-0.66908 -15.12797,-1.0993 -22.59557,-2.18853 -51.6754,-5.97998 -103.10156,-13.90245 -155.3436,-16.30825 -4.30921,-0.0115 -8.60283,-0.2921 -12.87115,-0.72808 -7.05479,-0.74821 -14.18746,-0.38274 -21.29288,-0.45468 -9.75559,-0.15684 -19.44107,0.9698 -29.18108,1.12088 -10.01068,-0.059 -19.93567,1.03456 -29.89766,1.5986 -22.13019,1.66334 -44.07345,4.51952 -66.11796,6.69366 -8.35164,0.78419 -16.66823,1.82882 -25.07439,2.14393 -19.9123,1.39427 -39.88302,5.43752 -59.92968,3.00726 -6.0247,-0.70793 -12.2013,-1.7281 -17.30107,-4.45765 -12.82052,-6.27495 -20.14792,-17.62914 -22.57416,-28.96607 -1.05345,-6.64042 -0.28429,-13.33984 0.0935,-19.99321 1.25596,-14.63052 4.77459,-29.04952 7.62532,-43.52608 2.71249,-12.12399 4.5643,-24.36741 5.56517,-36.63961 0.004,-8.82896 -0.0974,-17.65791 0,-26.48112 4.09695,0.39138 4.83495,4.22455 8.21533,5.51666 1.31048,-2.25472 1.6123,-4.7929 1.70771,-7.23036 -0.21808,-2.95258 -3.97817,-4.42312 -6.45115,-6.21884 C 117.15308,81.714863 85.569129,63.039657 54.277256,44.089626 50.359444,41.514033 45.894461,39.401759 42.391407,36.472203 c 6.133752,0.378425 12.092254,1.671977 18.089701,2.766964 l 0.08763,-0.02014 z"
         fill="#231f20"
         id="svg_2"
         stroke="null" />
    </g>
  </g>
</svg>
