<?xml version="1.0" encoding="UTF-8" standalone="no"?>
<svg
   xmlns:dc="http://purl.org/dc/elements/1.1/"
   xmlns:cc="http://creativecommons.org/ns#"
   xmlns:rdf="http://www.w3.org/1999/02/22-rdf-syntax-ns#"
   xmlns:svg="http://www.w3.org/2000/svg"
   xmlns="http://www.w3.org/2000/svg"
   xmlns:sodipodi="http://sodipodi.sourceforge.net/DTD/sodipodi-0.dtd"
   xmlns:inkscape="http://www.inkscape.org/namespaces/inkscape"
   inkscape:version="1.0 (4035a4fb49, 2020-05-01)"
   sodipodi:docname="genie.svg"
   viewBox="0, 0, 400,565.8064516129032"
   height="565.8064516129032"
   width="400"
   version="1.1"
   id="svg">
  <metadata
     id="metadata17">
    <rdf:RDF>
      <cc:Work
         rdf:about="">
        <dc:format>image/svg+xml</dc:format>
        <dc:type
           rdf:resource="http://purl.org/dc/dcmitype/StillImage" />
        <dc:title></dc:title>
      </cc:Work>
    </rdf:RDF>
  </metadata>
  <defs
     id="defs15" />
  <sodipodi:namedview
     inkscape:current-layer="svg"
     inkscape:window-maximized="1"
     inkscape:window-y="-11"
     inkscape:window-x="-11"
     inkscape:cy="312.47406"
     inkscape:cx="-61.844529"
     inkscape:zoom="1.413911"
     showgrid="false"
     id="namedview13"
     inkscape:window-height="986"
     inkscape:window-width="1920"
     inkscape:pageshadow="2"
     inkscape:pageopacity="0"
     guidetolerance="10"
     gridtolerance="10"
     objecttolerance="10"
     borderopacity="1"
     bordercolor="#666666"
     pagecolor="#ffffff" />
  <g
     id="svgg">
    <path
       fill-rule="evenodd"
       fill="#53bbeb"
       stroke="none"
       d="M181.604 47.761 C 174.500 49.371,169.642 54.979,167.613 63.915 C 166.848 67.279,166.874 68.111,167.797 69.811 C 170.221 74.283,171.583 77.590,171.855 79.668 C 172.055 81.192,172.008 81.120,169.353 75.807 C 163.643 64.379,158.468 57.371,152.035 52.355 C 150.536 51.186,150.442 51.145,150.784 51.806 C 151.813 53.796,153.157 58.654,153.742 62.500 C 154.916 70.211,154.604 76.821,152.626 86.203 C 150.808 94.823,151.334 100.058,154.330 103.172 L 155.476 104.363 155.789 103.656 C 155.961 103.267,156.380 102.312,156.720 101.534 C 158.563 97.319,161.362 99.003,161.033 104.128 C 160.971 105.101,161.014 105.896,161.130 105.896 C 161.740 105.896,163.335 104.795,164.436 103.613 C 165.122 102.876,165.968 101.973,166.314 101.608 C 167.996 99.836,167.779 101.940,166.049 104.180 C 164.621 106.030,164.565 106.574,165.585 108.726 C 165.985 109.570,166.455 110.790,166.631 111.439 C 166.806 112.087,166.959 112.459,166.970 112.264 C 166.982 112.070,167.583 111.114,168.307 110.142 C 172.151 104.975,173.741 102.159,174.577 99.035 C 175.183 96.770,175.140 96.662,173.374 96.018 C 171.981 95.511,171.462 95.022,171.462 94.218 C 171.462 93.173,177.928 95.710,181.250 98.059 C 184.280 100.202,187.578 103.554,187.114 104.018 C 186.573 104.560,185.042 103.715,182.995 101.746 C 180.171 99.029,179.882 99.143,181.641 102.279 C 184.927 108.134,193.150 111.545,199.292 109.601 C 201.604 108.870,201.438 108.297,198.674 107.477 C 195.560 106.553,194.748 105.202,197.300 105.192 C 198.680 105.187,200.291 106.092,202.594 108.166 C 207.323 112.424,208.721 111.745,208.721 105.189 C 208.721 102.420,208.364 100.748,207.435 99.163 C 206.678 97.871,201.843 93.093,201.112 92.915 C 200.099 92.669,200.425 90.183,201.829 87.459 L 202.476 86.203 204.901 85.759 L 207.326 85.314 207.260 82.578 C 207.176 79.132,207.073 79.094,204.561 81.596 C 202.187 83.960,200.881 84.335,202.333 82.236 C 204.101 79.678,208.051 76.670,211.372 75.350 C 214.311 74.182,213.705 75.169,210.377 76.970 C 208.386 78.047,208.352 78.114,208.735 80.268 L 209.054 82.063 210.331 80.713 C 214.389 76.422,220.047 68.559,220.047 67.211 C 220.047 66.537,215.549 68.751,211.321 71.506 C 207.148 74.224,207.311 74.169,207.311 72.866 C 207.311 71.525,207.819 70.655,209.738 68.700 C 211.172 67.240,211.344 66.980,210.952 66.858 C 209.478 66.402,206.890 64.924,204.835 63.367 L 202.476 61.579 202.203 63.463 C 201.471 68.507,200.428 67.153,199.067 59.396 C 198.150 54.168,197.704 52.926,196.138 51.238 C 195.266 50.299,195.041 50.291,193.782 51.157 C 191.744 52.559,189.839 54.817,187.944 58.072 C 186.664 60.273,184.632 63.361,183.868 64.269 L 183.272 64.976 183.263 63.754 C 183.239 60.196,184.816 56.133,188.333 50.696 C 189.172 49.399,189.858 48.256,189.858 48.155 C 189.858 47.516,183.935 47.233,181.604 47.761 M206.997 52.040 C 206.921 52.514,206.256 54.163,205.522 55.704 C 203.347 60.265,203.480 60.974,206.834 62.718 L 208.726 63.703 208.726 61.476 C 208.726 55.903,207.477 49.085,206.997 52.040 M195.991 60.747 C 195.991 61.246,195.288 61.908,193.860 62.757 C 191.708 64.035,191.734 63.920,193.152 65.952 C 195.204 68.891,196.495 72.575,196.114 74.405 C 195.702 76.385,195.718 76.381,195.284 74.646 C 194.404 71.130,193.029 68.182,191.432 66.386 L 190.630 65.485 190.273 66.056 C 188.827 68.373,187.163 71.668,186.890 72.755 C 186.628 73.802,186.321 73.652,186.324 72.479 C 186.334 68.298,189.412 64.057,194.458 61.273 C 195.642 60.619,195.991 60.499,195.991 60.747 M158.576 64.295 C 163.248 69.395,166.970 79.520,167.800 89.387 C 167.882 90.360,168.005 91.448,168.074 91.804 C 168.142 92.161,168.109 92.453,168.000 92.453 C 167.811 92.453,167.315 90.532,165.914 84.375 C 165.198 81.226,165.165 81.198,163.259 82.172 C 160.581 83.541,158.738 87.366,158.723 91.589 C 158.718 92.942,158.403 93.390,158.063 92.528 C 156.065 87.457,159.116 81.138,164.073 80.083 L 164.820 79.924 164.358 78.228 C 163.820 76.253,161.936 72.295,160.016 69.105 C 158.238 66.152,156.780 62.972,157.204 62.972 C 157.292 62.972,157.909 63.567,158.576 64.295 M182.193 79.050 C 189.624 80.389,195.192 83.160,197.442 86.641 C 198.690 88.573,198.605 89.025,197.213 87.854 C 196.264 87.056,196.133 87.099,195.808 88.312 C 195.032 91.214,191.260 92.980,188.121 91.911 L 187.044 91.543 187.859 92.728 C 188.795 94.089,189.228 95.339,189.113 96.349 C 189.035 97.037,189.014 97.022,188.114 95.637 C 187.107 94.087,184.932 91.833,182.547 89.870 C 178.271 86.348,177.188 85.110,178.715 85.486 C 179.781 85.749,181.192 86.532,182.167 87.402 C 183.123 88.254,183.453 88.319,183.067 87.579 C 182.942 87.341,182.610 85.873,182.328 84.316 C 181.508 79.793,181.528 79.842,180.307 79.376 C 179.723 79.153,179.245 78.876,179.245 78.760 C 179.245 78.548,179.600 78.583,182.193 79.050 M205.668 94.503 C 207.910 96.900,209.330 99.252,210.265 102.117 L 210.687 103.409 212.302 101.646 C 214.872 98.839,215.479 96.805,214.348 94.793 C 213.483 93.254,212.743 93.042,208.224 93.042 L 204.302 93.042 205.668 94.503 M178.035 99.894 C 177.824 100.796,177.685 101.571,177.727 101.617 C 177.868 101.775,178.572 99.057,178.495 98.655 C 178.453 98.435,178.245 98.993,178.035 99.894 M176.512 104.066 C 176.265 104.619,174.864 106.869,173.398 109.068 C 168.941 115.755,168.514 116.983,168.514 123.113 C 168.514 129.082,169.622 132.591,172.514 135.780 C 176.407 140.072,184.853 142.614,190.802 141.284 C 205.366 138.027,213.915 129.990,213.915 119.556 L 213.915 116.934 211.851 117.019 C 208.927 117.140,208.390 117.462,201.769 123.068 C 191.036 132.155,178.434 130.514,174.970 119.579 C 173.818 115.944,174.848 107.584,176.925 103.702 C 177.055 103.460,177.116 103.216,177.061 103.161 C 177.006 103.106,176.759 103.513,176.512 104.066 M161.132 107.544 C 160.176 107.770,160.306 107.603,159.668 109.434 C 156.478 118.597,150.230 122.998,146.047 119.028 L 145.277 118.298 144.407 119.194 C 143.928 119.687,143.072 120.410,142.504 120.801 C 141.629 121.403,127.121 128.774,126.811 128.774 C 126.753 128.774,124.809 129.687,122.492 130.803 C 120.174 131.919,117.695 133.100,116.981 133.427 C 80.920 149.979,58.709 168.446,49.818 189.269 C 45.414 199.586,44.410 216.219,47.336 230.425 C 47.536 231.397,47.751 232.459,47.813 232.783 C 51.655 252.719,68.588 270.374,89.409 276.150 C 96.481 278.112,106.331 279.208,112.063 278.671 L 113.863 278.502 114.266 277.046 C 114.644 275.680,116.066 271.460,117.216 268.293 C 121.308 257.019,130.735 242.044,139.645 232.665 C 140.261 232.017,140.995 231.221,141.276 230.896 L 141.786 230.307 139.112 227.706 C 130.007 218.850,115.800 210.468,105.932 208.129 C 101.151 206.996,100.200 206.712,98.585 205.932 C 96.328 204.841,96.903 204.713,100.871 205.421 C 115.761 208.079,129.169 215.175,140.880 226.597 L 143.435 229.088 144.139 228.672 L 144.844 228.256 146.066 229.629 C 148.426 232.280,154.127 238.576,155.436 239.976 C 156.163 240.755,158.074 242.824,159.682 244.575 C 161.290 246.327,163.299 248.499,164.145 249.404 C 166.005 251.392,168.915 254.514,170.016 255.704 L 170.821 256.573 169.970 257.757 L 169.120 258.940 171.883 260.646 C 180.861 266.187,183.367 268.672,187.070 275.708 C 193.625 288.159,193.576 301.410,186.940 311.076 C 180.911 319.857,177.447 322.856,170.439 325.358 L 168.294 326.124 169.111 326.631 C 175.168 330.390,184.837 332.595,195.283 332.601 C 199.392 332.603,201.036 332.468,207.547 331.588 C 209.428 331.334,211.869 331.010,212.972 330.868 C 218.793 330.120,224.057 328.401,224.057 327.248 C 224.057 325.207,228.743 316.754,235.110 307.311 C 242.599 296.204,244.489 293.843,249.175 289.741 C 250.213 288.833,251.114 288.036,251.179 287.971 C 251.244 287.905,252.252 287.003,253.420 285.966 C 257.189 282.618,258.521 281.350,263.687 276.185 C 268.882 270.991,270.003 269.806,272.056 267.337 C 272.702 266.559,273.368 265.778,273.534 265.601 C 277.840 261.034,284.942 248.980,287.823 241.352 C 293.584 226.094,294.213 212.488,289.969 194.929 C 286.405 180.181,278.159 165.672,267.779 155.885 C 263.020 151.398,251.195 145.080,244.183 143.277 C 240.786 142.404,238.585 141.511,238.355 140.911 C 238.201 140.510,237.951 140.467,242.571 141.635 C 261.418 146.396,272.422 155.055,282.576 173.113 C 294.161 193.718,297.075 214.821,291.285 236.203 C 290.830 237.884,290.214 239.392,289.261 241.156 C 288.701 242.193,287.800 244.051,287.260 245.283 C 285.719 248.799,284.545 251.391,284.038 252.398 C 283.994 252.485,284.870 253.513,285.985 254.682 C 289.788 258.672,292.209 262.297,294.005 266.685 L 294.222 267.215 294.932 266.567 C 295.322 266.211,296.277 265.390,297.054 264.742 C 297.831 264.095,298.838 263.235,299.292 262.832 C 299.746 262.430,301.126 261.217,302.358 260.139 C 321.120 243.712,328.525 228.528,328.536 206.461 C 328.538 200.724,328.233 196.822,327.228 189.741 C 325.224 175.633,316.314 162.888,301.867 153.469 C 297.090 150.354,288.876 145.871,283.844 143.632 C 283.196 143.344,282.134 142.872,281.486 142.584 C 271.678 138.231,256.316 133.292,240.026 129.253 L 234.180 127.804 233.422 128.444 C 228.395 132.692,221.736 129.787,223.906 124.292 C 224.004 124.045,223.647 123.698,222.719 123.136 L 221.391 122.333 220.896 123.015 C 207.412 141.586,195.621 148.317,181.458 145.529 C 166.230 142.533,159.114 130.503,164.431 116.745 C 164.706 116.032,165.022 115.347,165.131 115.224 C 165.715 114.567,165.284 112.038,164.172 109.597 C 163.895 108.989,163.567 108.226,163.444 107.902 C 163.202 107.267,162.657 107.183,161.132 107.544 M152.241 111.519 C 151.462 112.383,151.089 112.919,151.410 112.710 C 152.066 112.285,153.905 110.193,153.754 110.045 C 153.700 109.993,153.019 110.656,152.241 111.519 M202.957 111.026 C 203.491 113.576,203.481 113.561,204.594 113.561 C 205.847 113.561,206.646 114.218,207.220 115.719 C 207.435 116.284,207.645 116.745,207.686 116.745 C 208.767 116.745,209.066 116.068,208.416 115.090 C 208.116 114.638,207.738 113.939,207.576 113.535 C 207.358 112.994,207.046 112.731,206.383 112.532 C 205.889 112.384,204.952 111.839,204.301 111.320 C 202.896 110.202,202.779 110.176,202.957 111.026 M225.943 126.056 C 225.943 127.197,226.743 127.710,228.210 127.509 C 229.301 127.360,230.660 126.715,230.660 126.347 C 230.660 126.236,230.381 126.365,230.039 126.634 C 228.938 127.500,227.146 127.016,227.431 125.929 C 227.504 125.650,227.373 125.468,227.036 125.377 C 226.090 125.124,225.943 125.215,225.943 126.056 M270.289 188.186 C 271.740 188.373,274.292 189.270,274.293 189.593 C 274.293 189.674,271.613 189.704,268.337 189.659 C 260.889 189.556,251.626 190.086,245.991 190.935 C 239.201 191.958,237.099 192.373,231.784 193.735 C 213.606 198.393,198.959 207.110,189.192 219.082 C 187.107 221.638,186.754 221.511,188.109 218.692 C 189.655 215.477,191.461 213.377,195.989 209.531 C 197.350 208.375,198.676 207.233,198.937 206.994 C 204.637 201.752,219.738 194.967,232.783 191.785 C 239.976 190.031,245.424 189.154,253.538 188.444 C 258.675 187.994,267.723 187.854,270.289 188.186 M166.323 262.323 C 164.638 264.445,161.834 268.822,160.295 271.736 C 159.564 273.118,158.257 275.400,157.391 276.807 C 156.524 278.213,155.424 280.000,154.945 280.779 C 153.015 283.919,151.415 287.600,151.415 288.897 C 151.418 294.478,154.532 300.666,161.753 309.434 C 164.259 312.477,162.420 312.751,159.426 309.780 L 157.870 308.236 157.288 308.694 C 156.968 308.945,156.404 309.730,156.034 310.437 C 154.626 313.128,153.395 313.656,154.282 311.188 L 154.664 310.126 153.750 309.230 C 149.364 304.931,142.056 305.651,142.120 310.377 C 142.224 318.166,151.437 325.012,161.792 324.996 C 170.919 324.981,178.453 320.933,183.734 313.208 C 189.946 304.119,191.353 295.966,188.582 285.114 C 185.613 273.484,180.743 267.344,170.374 262.160 C 167.213 260.580,167.724 260.559,166.323 262.323 M251.505 290.637 C 243.765 298.526,240.685 301.979,237.324 306.533 C 236.042 308.270,233.255 312.711,233.255 313.016 C 233.255 313.193,236.232 312.616,237.712 312.152 C 243.161 310.445,249.849 304.668,255.466 296.816 C 258.412 292.699,259.268 288.208,257.529 285.998 C 256.839 285.120,257.159 284.874,251.505 290.637 M151.033 300.811 C 150.192 301.177,149.275 302.295,148.726 303.626 C 148.215 304.862,148.178 304.798,149.705 305.310 C 150.451 305.561,152.057 306.442,153.274 307.269 C 155.638 308.874,155.519 308.867,156.279 307.461 C 156.628 306.814,156.614 306.742,155.952 305.810 C 155.572 305.274,154.805 303.986,154.248 302.948 C 152.767 300.188,152.647 300.108,151.033 300.811 "
       id="path0" />
    <path
       fill-rule="evenodd"
       fill="#d94325"
       stroke="none"
       d="M172.177 47.545 C 171.127 48.494,170.759 49.658,171.202 50.631 C 171.543 51.378,171.636 51.340,174.247 49.370 L 176.382 47.759 175.886 47.229 C 175.050 46.335,173.357 46.479,172.177 47.545 M149.847 101.474 C 144.819 108.240,144.459 118.822,149.241 119.281 C 154.377 119.775,160.440 109.418,159.334 102.041 C 159.051 100.157,158.401 101.081,156.355 106.279 C 154.143 111.895,152.678 114.160,150.761 114.927 C 147.051 116.412,146.878 111.629,150.387 104.567 C 151.916 101.490,151.924 101.463,151.547 100.734 C 151.057 99.787,151.122 99.758,149.847 101.474 M201.292 112.361 C 200.629 115.687,185.217 115.783,176.919 112.513 C 176.243 112.246,175.625 112.028,175.545 112.028 C 175.378 112.028,175.642 117.080,175.850 117.847 L 175.989 118.359 177.062 117.788 C 178.394 117.080,179.717 117.054,182.222 117.685 C 183.244 117.943,184.558 118.155,185.142 118.158 C 186.795 118.166,187.992 118.594,189.214 119.615 C 190.720 120.873,192.314 120.460,197.759 117.400 C 202.299 114.849,202.362 114.772,201.800 112.382 L 201.523 111.203 201.292 112.361 M178.420 119.056 C 176.821 119.810,176.723 120.081,177.506 121.580 L 178.184 122.876 179.363 122.875 C 181.974 122.874,187.568 121.694,188.294 120.992 C 188.406 120.884,188.147 120.613,187.718 120.392 C 184.700 118.831,180.252 118.192,178.420 119.056 M141.831 232.134 C 140.717 233.203,139.369 234.599,138.837 235.235 L 137.870 236.390 138.683 237.004 C 140.155 238.116,144.439 241.571,145.414 242.433 C 145.939 242.898,146.735 243.588,147.183 243.966 C 150.947 247.154,157.608 253.402,163.032 258.833 C 164.826 260.631,165.421 261.100,165.570 260.838 C 165.676 260.649,166.462 259.603,167.316 258.512 C 169.211 256.091,169.362 256.733,166.142 253.534 C 164.643 252.044,162.069 249.295,160.423 247.424 C 158.776 245.553,155.878 242.263,153.982 240.112 C 150.386 236.035,144.577 230.189,144.121 230.189 C 143.976 230.189,142.945 231.064,141.831 232.134 M124.742 255.964 C 117.678 268.384,114.652 276.490,114.627 283.061 L 114.623 284.165 115.861 284.410 C 133.565 287.922,146.921 290.330,148.686 290.330 C 149.176 290.330,149.320 290.119,149.764 288.745 C 151.253 284.135,154.529 277.139,157.153 272.966 L 158.654 270.579 150.023 265.381 C 145.276 262.523,138.367 258.360,134.670 256.130 C 130.973 253.901,127.776 251.985,127.567 251.872 C 127.252 251.704,126.757 252.421,124.742 255.964 M282.209 254.780 C 281.970 255.199,281.552 255.914,281.281 256.368 L 280.789 257.193 281.471 256.750 C 281.846 256.506,282.507 256.098,282.940 255.842 C 283.873 255.291,283.892 255.190,283.185 254.527 L 282.644 254.018 282.209 254.780 M289.544 264.535 C 287.792 265.681,271.873 273.821,271.383 273.821 C 271.329 273.821,269.711 274.571,267.787 275.489 C 264.004 277.293,263.983 277.311,259.380 282.490 L 258.069 283.966 258.741 284.685 C 259.110 285.081,259.683 285.976,260.013 286.674 L 260.614 287.944 263.031 286.868 C 266.165 285.473,267.489 284.970,273.507 282.891 C 285.486 278.752,290.247 276.502,293.923 273.243 L 294.567 272.671 293.954 270.828 C 293.172 268.480,290.919 263.888,290.568 263.929 C 290.502 263.937,290.041 264.209,289.544 264.535 M155.703 328.339 C 155.562 329.551,155.383 331.922,155.304 333.608 C 155.058 338.880,154.746 341.493,153.854 345.755 C 152.149 353.907,152.503 355.596,156.824 359.927 C 168.002 371.133,188.461 375.852,204.221 370.860 C 207.297 369.885,210.170 368.684,215.212 366.263 C 217.158 365.329,219.615 364.165,220.673 363.676 L 222.595 362.788 223.417 361.052 C 226.398 354.753,228.075 341.475,227.195 331.132 C 226.974 328.527,227.225 328.632,224.028 329.802 C 212.597 333.983,194.150 335.131,180.037 332.541 C 174.272 331.482,172.157 330.691,167.883 327.995 L 165.836 326.704 161.633 326.573 C 159.321 326.500,157.099 326.372,156.695 326.288 L 155.960 326.135 155.703 328.339 "
       id="path1" />
    <path
       fill-rule="evenodd"
       fill="#050606"
       stroke="none"
       d="M112.736 20.687 C 112.736 22.689,117.340 29.456,120.166 31.608 C 123.659 34.268,130.285 35.999,134.953 35.471 C 135.705 35.386,136.319 35.410,136.318 35.524 C 136.311 36.045,132.584 37.736,131.444 37.736 C 130.870 37.736,129.009 38.725,129.009 39.030 C 129.009 40.611,136.455 41.043,143.750 39.886 C 149.496 38.975,150.465 38.885,153.412 38.986 C 158.942 39.177,162.500 40.903,166.156 45.169 C 166.804 45.926,167.441 46.659,167.571 46.798 C 168.585 47.888,169.042 48.814,169.165 50.029 C 169.239 50.758,169.524 51.795,169.799 52.334 L 170.298 53.313 169.626 54.310 C 168.986 55.260,168.623 55.980,167.787 57.960 C 167.582 58.446,167.278 59.163,167.113 59.552 C 166.947 59.941,166.571 61.268,166.277 62.500 C 165.983 63.732,165.701 64.886,165.651 65.063 C 165.600 65.241,164.825 64.339,163.928 63.059 C 163.031 61.778,162.210 60.625,162.103 60.495 C 161.997 60.365,161.598 59.835,161.215 59.316 C 160.833 58.797,160.459 58.320,160.384 58.255 C 160.309 58.190,159.882 57.659,159.435 57.075 C 156.868 53.719,151.004 49.057,149.349 49.057 C 148.439 49.057,148.812 52.290,149.986 54.572 C 150.934 56.416,151.939 59.463,152.327 61.675 C 152.464 62.453,152.709 63.833,152.872 64.741 C 153.055 65.763,153.168 68.547,153.168 72.052 C 153.168 78.528,152.939 80.580,151.537 86.675 C 150.542 90.999,150.472 91.528,150.472 94.667 C 150.472 97.332,150.410 97.855,150.052 98.246 C 149.821 98.497,149.317 99.127,148.933 99.646 C 148.548 100.165,148.169 100.643,148.090 100.708 C 147.673 101.050,145.519 105.703,145.519 106.263 C 145.519 106.467,145.410 106.839,145.276 107.088 C 144.744 108.082,144.284 111.906,144.389 114.455 L 144.494 117.003 143.152 117.994 C 141.557 119.174,141.564 119.169,138.561 121.059 C 137.264 121.875,135.831 122.726,135.377 122.949 C 134.923 123.172,134.127 123.610,133.608 123.922 C 131.927 124.934,121.773 129.935,118.278 131.474 C 116.168 132.402,115.364 132.767,113.561 133.612 C 112.524 134.099,111.250 134.682,110.731 134.908 C 107.834 136.168,96.806 141.767,94.672 143.061 C 93.298 143.894,92.122 144.575,92.057 144.575 C 91.993 144.575,91.393 144.945,90.723 145.396 C 89.451 146.253,82.112 151.167,80.071 152.528 C 79.422 152.961,78.679 153.466,78.420 153.649 C 73.011 157.481,72.917 157.550,72.063 158.276 C 71.668 158.612,71.097 159.089,70.794 159.337 C 67.914 161.694,66.351 163.138,62.260 167.217 C 55.585 173.872,51.106 180.137,48.767 186.085 C 48.640 186.409,48.388 186.993,48.209 187.382 C 47.932 187.982,47.082 190.543,46.251 193.278 C 42.786 204.695,42.531 221.799,45.648 233.844 C 46.617 237.593,46.702 237.882,47.167 239.033 C 47.272 239.292,47.493 239.876,47.658 240.330 C 48.240 241.933,50.910 247.376,51.783 248.738 C 52.269 249.497,52.864 250.469,53.106 250.899 C 53.348 251.328,53.655 251.806,53.789 251.960 C 53.922 252.114,54.462 252.824,54.988 253.538 C 59.290 259.374,67.138 266.856,73.467 271.154 C 75.699 272.669,79.365 274.764,79.786 274.764 C 79.922 274.764,80.201 274.907,80.406 275.082 C 82.884 277.195,98.245 280.425,105.816 280.425 C 106.857 280.425,109.009 280.494,110.597 280.580 L 113.486 280.735 113.359 281.700 C 113.289 282.231,113.165 283.215,113.082 283.888 L 112.932 285.111 113.836 285.348 C 114.746 285.587,116.296 285.945,118.042 286.321 C 118.561 286.432,119.490 286.637,120.106 286.776 C 120.722 286.915,121.677 287.126,122.229 287.246 C 122.780 287.365,123.921 287.624,124.764 287.821 C 127.469 288.454,132.850 289.456,138.149 290.314 C 146.760 291.709,147.016 291.745,148.258 291.749 C 149.726 291.753,149.804 291.816,150.448 293.514 C 150.743 294.292,151.092 295.195,151.222 295.519 C 152.433 298.525,152.495 299.292,151.526 299.292 C 149.708 299.292,147.655 301.076,147.040 303.188 C 146.710 304.326,146.585 304.480,145.801 304.719 C 138.764 306.870,138.908 313.747,146.137 320.799 C 148.557 323.159,151.820 325.297,153.329 325.510 C 154.406 325.662,154.044 332.407,152.151 347.406 C 152.028 348.379,151.751 350.579,151.535 352.296 L 151.142 355.418 151.687 356.188 C 153.715 359.052,158.540 363.457,162.618 366.164 C 177.011 375.722,194.559 376.822,212.056 369.265 C 216.954 367.149,225.203 362.978,225.317 362.558 C 225.378 362.332,225.655 361.191,225.932 360.024 C 226.209 358.856,226.582 357.317,226.761 356.604 C 226.939 355.890,227.204 354.564,227.349 353.656 C 227.494 352.748,227.708 351.421,227.825 350.708 C 228.676 345.530,229.054 339.841,228.969 333.499 L 228.892 327.730 228.302 327.423 C 227.978 327.254,227.421 327.013,227.065 326.889 C 226.435 326.670,226.426 326.642,226.743 325.891 C 226.923 325.466,227.305 324.375,227.593 323.467 C 229.111 318.686,231.677 314.623,233.178 314.623 C 234.211 314.623,238.139 313.651,239.741 312.999 C 241.043 312.470,244.811 310.480,244.811 310.322 C 244.811 310.223,244.955 310.142,245.131 310.142 C 245.306 310.142,245.710 309.903,246.027 309.611 C 246.345 309.319,246.999 308.782,247.481 308.417 C 249.295 307.042,251.890 304.241,253.530 301.887 C 253.846 301.433,254.165 301.008,254.239 300.943 C 254.783 300.466,257.417 295.905,259.228 292.303 L 260.429 289.913 262.113 289.263 C 263.039 288.906,264.328 288.378,264.976 288.089 C 265.625 287.801,266.527 287.433,266.981 287.273 C 267.435 287.112,268.019 286.896,268.278 286.792 C 268.538 286.689,269.121 286.477,269.575 286.321 C 270.029 286.165,270.613 285.947,270.873 285.837 C 271.132 285.727,271.872 285.466,272.518 285.256 C 273.163 285.047,273.800 284.798,273.933 284.704 C 274.066 284.609,274.599 284.397,275.118 284.232 C 275.637 284.066,276.274 283.842,276.533 283.733 C 276.792 283.623,278.172 283.084,279.599 282.534 C 285.576 280.231,290.809 277.540,294.399 274.923 C 296.195 273.614,296.399 272.915,295.626 270.725 C 295.122 269.298,295.303 268.883,296.869 267.866 C 297.618 267.380,298.830 266.425,299.562 265.743 C 300.294 265.062,301.671 263.815,302.622 262.972 C 307.215 258.900,313.934 252.122,315.833 249.646 C 316.131 249.257,316.442 248.886,316.524 248.821 C 316.605 248.756,317.273 247.907,318.006 246.934 C 318.740 245.961,319.447 245.037,319.576 244.880 C 319.705 244.724,319.811 244.494,319.811 244.369 C 319.811 244.245,319.891 244.108,319.989 244.064 C 320.329 243.914,322.132 240.941,324.042 237.382 C 324.365 236.779,325.560 234.005,326.175 232.429 C 326.276 232.170,326.524 231.533,326.727 231.014 C 327.585 228.815,328.711 224.242,329.225 220.873 C 330.259 214.091,330.531 200.103,329.745 194.104 C 328.912 187.740,328.486 185.625,327.300 181.958 C 326.771 180.323,325.512 177.223,324.570 175.236 C 323.431 172.833,319.629 166.932,318.644 166.038 C 318.573 165.973,317.983 165.284,317.335 164.507 C 315.616 162.448,313.254 160.126,310.247 157.539 C 308.289 155.855,303.154 152.103,301.533 151.172 C 301.144 150.949,300.136 150.344,299.292 149.827 C 296.357 148.029,286.257 142.827,283.608 141.749 C 283.128 141.554,281.979 141.066,280.601 140.471 C 280.180 140.289,279.231 139.865,278.493 139.528 C 277.756 139.191,277.007 138.915,276.831 138.915 C 276.654 138.915,276.409 138.826,276.285 138.716 C 276.162 138.607,275.425 138.278,274.646 137.985 C 272.914 137.335,272.173 137.034,271.654 136.772 C 271.231 136.558,269.208 135.818,267.453 135.235 C 266.869 135.041,266.179 134.786,265.920 134.669 C 265.660 134.551,264.917 134.298,264.269 134.105 C 263.620 133.913,262.506 133.549,261.792 133.297 C 261.079 133.045,259.699 132.607,258.726 132.323 C 257.754 132.040,256.692 131.721,256.368 131.615 C 256.044 131.509,255.301 131.293,254.717 131.135 C 254.133 130.977,253.231 130.713,252.712 130.549 C 251.574 130.188,250.391 129.864,248.349 129.352 C 244.891 128.485,243.637 128.186,242.453 127.949 C 241.999 127.858,241.203 127.647,240.684 127.480 C 239.816 127.200,238.564 126.906,236.618 126.528 C 235.611 126.331,235.511 126.109,236.016 125.184 C 236.356 124.562,236.436 123.877,236.425 121.698 C 236.392 114.861,231.924 112.115,224.882 114.603 C 219.493 116.507,217.808 116.645,214.529 115.451 C 213.499 115.076,212.405 114.858,211.548 114.858 L 210.193 114.858 209.696 113.800 C 209.090 112.511,209.078 112.115,209.620 111.203 C 210.089 110.413,210.508 108.791,210.749 106.840 C 210.900 105.609,211.013 105.433,212.942 103.411 C 215.568 100.659,216.274 99.271,216.274 96.860 C 216.274 93.009,214.953 91.898,209.906 91.502 C 208.544 91.395,206.986 91.234,206.443 91.145 L 205.457 90.983 206.226 89.536 C 207.446 87.240,207.604 87.051,208.664 86.615 C 209.756 86.166,209.943 85.661,209.190 85.191 C 208.627 84.839,208.682 84.708,210.131 82.977 C 211.260 81.628,212.634 80.232,215.802 77.219 C 222.235 71.099,226.788 63.694,225.714 61.099 C 224.722 58.704,221.410 59.345,217.217 62.743 C 214.235 65.159,212.564 65.768,210.919 65.037 C 209.853 64.563,209.697 64.342,209.965 63.679 C 210.656 61.973,210.207 54.758,209.179 51.061 C 208.703 49.348,207.519 46.885,207.104 46.747 C 206.599 46.579,205.579 49.384,204.249 54.599 C 204.017 55.507,203.613 56.781,203.351 57.429 C 202.846 58.675,202.886 58.689,202.357 57.075 C 202.105 56.308,201.515 53.010,201.175 50.472 C 200.451 45.077,199.208 42.925,196.816 42.925 C 195.226 42.925,194.691 43.221,192.248 45.457 C 190.975 46.622,191.152 46.595,188.768 45.994 C 185.273 45.114,179.414 45.502,177.935 46.712 C 177.782 46.837,177.556 46.736,177.352 46.453 C 177.169 46.199,176.883 45.991,176.717 45.991 C 176.551 45.991,176.414 45.911,176.413 45.814 C 176.410 45.498,175.163 45.047,174.293 45.047 C 173.523 45.047,173.416 44.965,173.141 44.163 C 172.841 43.288,172.546 42.577,171.770 40.861 C 171.393 40.028,169.853 37.521,169.561 37.264 C 169.487 37.199,169.097 36.669,168.695 36.085 C 167.867 34.883,164.922 31.972,163.679 31.127 C 163.225 30.818,162.801 30.504,162.736 30.429 C 162.225 29.838,158.144 27.783,156.250 27.163 C 151.840 25.721,149.211 25.477,137.972 25.469 C 122.935 25.458,117.835 24.504,113.784 20.947 C 112.905 20.176,112.736 20.134,112.736 20.687 M175.886 47.229 L 176.382 47.759 174.247 49.370 C 171.636 51.340,171.543 51.378,171.202 50.631 C 170.115 48.246,174.118 45.338,175.886 47.229 M187.264 47.412 C 190.684 47.944,190.568 47.530,188.288 51.080 C 185.141 55.978,183.770 59.416,183.408 63.323 L 183.277 64.737 184.070 63.795 C 184.506 63.277,185.960 61.062,187.302 58.872 C 189.913 54.610,192.204 51.857,194.035 50.784 L 195.083 50.170 195.713 50.638 C 197.444 51.921,198.299 54.037,199.179 59.218 C 200.454 66.721,202.123 68.575,202.123 62.488 C 202.123 61.252,202.300 61.292,204.690 63.058 C 207.686 65.272,208.558 65.800,210.190 66.391 L 211.664 66.925 209.872 68.781 C 207.778 70.950,207.547 71.334,207.547 72.651 C 207.547 73.876,207.324 73.960,211.842 71.043 C 216.217 68.219,219.699 66.555,220.195 67.050 C 220.823 67.679,215.029 75.880,210.671 80.530 C 208.696 82.637,208.821 82.596,208.651 81.191 C 208.577 80.575,208.446 79.634,208.359 79.099 L 208.201 78.128 209.534 77.331 C 212.502 75.554,213.020 75.206,212.889 75.075 C 212.045 74.231,205.201 78.868,202.790 81.918 C 200.980 84.209,202.281 83.727,204.856 81.153 C 206.795 79.215,207.190 79.098,207.398 80.401 C 207.697 82.270,207.298 85.613,206.776 85.613 C 206.521 85.613,205.443 85.792,204.380 86.011 L 202.449 86.408 201.798 87.839 C 201.039 89.505,200.361 92.205,200.636 92.464 C 200.740 92.562,201.010 92.680,201.235 92.725 C 202.004 92.878,206.967 98.033,207.729 99.469 C 208.930 101.731,209.299 105.307,208.649 108.403 C 207.920 111.882,206.506 111.954,202.968 108.691 C 199.993 105.948,198.267 105.028,196.687 105.344 C 195.326 105.616,196.317 106.636,198.604 107.317 C 201.740 108.251,201.971 108.877,199.477 109.682 C 192.427 111.956,184.084 108.032,180.773 100.885 C 179.850 98.894,180.535 99.159,183.411 101.906 C 185.192 103.607,186.692 104.424,187.165 103.952 C 187.397 103.719,183.784 100.107,181.973 98.762 C 179.281 96.762,173.519 94.104,171.876 94.104 C 170.752 94.104,172.180 95.544,173.765 96.008 C 175.316 96.463,175.386 96.657,174.790 98.888 C 173.898 102.231,171.484 106.367,166.985 112.264 L 166.536 112.854 166.523 112.067 C 166.515 111.634,166.145 110.450,165.699 109.436 C 164.278 106.204,164.239 106.469,166.635 103.154 C 167.764 101.591,167.337 100.513,166.156 101.946 C 164.180 104.343,161.954 106.132,160.947 106.132 C 160.893 106.132,160.849 105.044,160.848 103.715 C 160.846 98.345,158.472 97.667,156.482 102.467 C 155.639 104.502,155.645 104.497,154.678 103.782 C 151.325 101.303,150.636 94.972,152.649 85.142 C 155.192 72.724,154.609 61.427,150.971 52.653 C 150.582 51.713,150.306 50.943,150.359 50.943 C 150.412 50.943,151.510 51.792,152.799 52.828 C 158.986 57.805,163.816 64.444,169.567 75.875 C 170.785 78.296,171.682 79.839,171.688 79.523 C 171.707 78.476,170.473 75.333,168.631 71.743 C 166.627 67.834,166.700 68.188,167.242 64.976 C 169.204 53.350,177.675 45.919,187.264 47.412 M208.029 52.718 C 208.416 54.193,208.552 55.612,208.658 59.286 L 208.792 63.974 207.639 63.320 C 207.005 62.961,206.035 62.413,205.485 62.103 C 203.368 60.910,203.374 59.861,205.524 55.357 C 206.224 53.889,206.873 52.181,206.966 51.562 C 207.181 50.125,207.416 50.380,208.029 52.718 M194.456 61.466 C 189.825 63.895,186.542 68.263,186.562 71.970 L 186.568 72.995 187.122 71.647 C 187.571 70.556,190.132 65.788,190.515 65.330 C 191.053 64.688,194.284 70.442,195.151 73.585 C 195.790 75.903,196.139 75.708,195.923 73.153 C 195.703 70.543,194.690 68.236,192.419 65.174 C 191.544 63.994,191.571 63.940,193.640 62.731 C 194.539 62.206,195.387 61.568,195.523 61.313 C 195.834 60.732,195.865 60.728,194.456 61.466 M157.450 63.679 C 157.684 64.548,158.787 66.686,160.905 70.376 C 162.967 73.968,163.961 76.135,164.504 78.218 C 164.973 80.019,164.956 80.189,164.307 80.189 C 160.359 80.189,156.664 86.472,157.815 91.228 C 158.176 92.717,158.490 93.006,158.494 91.851 C 158.509 87.139,160.884 82.728,163.955 81.708 C 165.463 81.207,165.356 81.030,166.386 85.731 C 167.940 92.823,168.165 93.360,167.570 88.561 C 166.463 79.629,164.148 72.479,160.660 67.217 C 159.168 64.967,157.218 62.817,157.450 63.679 M180.586 79.299 C 181.693 79.855,181.651 79.751,182.330 83.656 C 182.591 85.163,183.005 86.964,183.249 87.659 L 183.693 88.923 182.472 87.851 C 181.167 86.707,179.208 85.613,178.463 85.613 C 177.804 85.613,178.075 85.888,182.301 89.509 C 185.936 92.623,187.038 93.757,188.320 95.701 C 188.685 96.254,189.024 96.668,189.072 96.619 C 189.362 96.329,188.517 93.951,187.720 92.812 C 186.578 91.183,186.576 91.216,187.795 91.656 C 191.180 92.878,194.893 91.182,195.775 88.012 L 196.124 86.759 196.942 87.479 C 198.465 88.822,198.519 88.339,197.066 86.365 C 194.676 83.119,189.969 80.790,182.907 79.360 C 179.456 78.661,179.309 78.657,180.586 79.299 M184.150 81.504 C 184.528 85.210,186.495 86.814,188.283 84.875 C 188.865 84.244,188.929 84.034,188.789 83.208 C 188.636 82.299,188.651 82.270,189.185 82.428 C 191.190 83.022,195.385 85.469,195.211 85.943 C 195.159 86.086,194.930 86.767,194.704 87.456 C 192.970 92.729,186.325 92.053,184.197 86.387 C 183.551 84.666,183.225 80.533,183.749 80.706 C 183.931 80.766,184.112 81.125,184.150 81.504 M205.331 88.572 C 204.505 89.815,203.267 90.828,202.182 91.149 C 201.335 91.399,201.557 90.867,202.565 90.231 C 203.597 89.579,204.280 88.792,204.707 87.759 C 204.983 87.094,205.904 86.658,206.097 87.101 C 206.143 87.206,205.798 87.868,205.331 88.572 M212.526 93.130 C 214.711 93.851,215.667 96.429,214.595 98.710 C 213.683 100.650,210.377 104.166,210.377 103.196 C 210.377 101.441,207.821 96.946,205.409 94.458 L 203.808 92.807 207.743 92.828 C 210.084 92.841,212.021 92.964,212.526 93.130 M178.658 99.243 C 178.572 99.705,178.073 101.153,177.551 102.459 C 171.326 118.024,175.508 128.657,187.854 128.655 C 193.610 128.654,196.444 127.320,203.892 121.104 C 208.626 117.153,210.487 116.315,213.342 116.851 L 214.207 117.013 214.088 119.886 C 213.657 130.314,206.043 137.578,191.757 141.192 C 189.189 141.841,188.314 141.968,187.158 141.857 C 174.149 140.604,168.125 134.569,168.169 122.832 C 168.187 117.860,169.156 115.179,173.043 109.347 C 176.067 104.811,177.143 102.728,177.873 100.001 C 178.363 98.169,178.970 97.584,178.658 99.243 M151.547 100.734 C 151.924 101.463,151.916 101.490,150.387 104.567 C 146.878 111.629,147.051 116.412,150.761 114.927 C 152.678 114.160,154.143 111.895,156.355 106.279 C 158.401 101.081,159.051 100.157,159.334 102.041 C 160.440 109.418,154.377 119.775,149.241 119.281 C 144.459 118.822,144.819 108.240,149.847 101.474 C 151.122 99.758,151.057 99.787,151.547 100.734 M180.924 103.790 C 183.937 109.443,191.214 112.553,198.269 111.203 C 200.828 110.713,200.756 110.697,200.569 111.733 C 200.369 112.838,200.576 112.691,198.678 113.083 C 195.615 113.715,194.575 113.786,194.575 113.364 C 194.575 112.623,193.662 112.411,193.357 113.081 C 193.090 113.667,193.035 113.679,190.553 113.679 C 187.772 113.679,187.736 113.659,187.736 112.154 C 187.736 111.582,187.615 111.344,187.278 111.256 C 186.648 111.091,186.557 111.241,186.557 112.445 L 186.557 113.490 185.083 113.330 C 181.441 112.935,180.425 112.473,180.425 111.214 C 180.425 110.667,180.355 110.150,180.269 110.065 C 179.978 109.773,179.481 110.434,179.481 111.114 C 179.481 112.004,178.744 112.024,177.018 111.178 L 175.763 110.564 176.083 109.350 C 176.258 108.683,177.077 106.810,177.901 105.189 C 178.726 103.567,179.480 101.975,179.576 101.651 L 179.752 101.061 179.943 101.685 C 180.049 102.028,180.490 102.975,180.924 103.790 M154.670 105.682 C 154.709 105.775,154.493 106.100,154.190 106.404 C 153.887 106.708,153.276 107.486,152.832 108.132 C 152.007 109.334,151.533 109.923,150.436 111.114 C 149.616 112.004,149.528 111.975,149.528 110.817 C 149.528 109.325,150.829 105.852,151.636 105.189 C 151.715 105.124,151.970 104.773,152.202 104.408 L 152.624 103.745 153.611 104.629 C 154.155 105.116,154.631 105.589,154.670 105.682 M163.443 107.313 C 163.443 107.444,163.873 108.556,164.397 109.784 C 165.683 112.794,165.792 113.865,165.001 115.744 C 158.407 131.411,167.609 144.789,185.731 145.879 C 197.480 146.586,207.496 140.455,218.685 125.708 C 220.112 123.827,221.400 122.321,221.548 122.361 C 221.695 122.401,222.357 122.758,223.017 123.154 L 224.218 123.875 223.912 124.732 C 222.088 129.839,229.089 132.359,233.491 128.180 L 234.080 127.620 241.863 129.592 C 297.712 143.745,323.518 162.208,327.580 190.920 C 330.957 214.788,327.105 232.259,315.169 247.223 C 309.815 253.934,293.868 268.660,293.868 266.892 C 293.868 265.010,288.191 256.747,284.468 253.211 L 283.751 252.530 284.326 251.395 C 284.643 250.770,285.549 248.796,286.340 247.008 C 287.132 245.219,288.343 242.640,289.033 241.277 C 297.084 225.355,295.329 198.727,284.844 177.712 C 274.342 156.662,262.142 146.439,241.745 141.596 C 240.383 141.273,239.070 140.951,238.827 140.880 C 238.567 140.805,238.444 140.848,238.529 140.985 C 238.827 141.468,240.995 142.289,244.018 143.063 C 251.945 145.095,264.450 152.042,269.121 157.009 C 282.812 171.566,289.698 186.409,292.371 207.120 C 292.879 211.062,292.949 220.135,292.495 223.231 C 288.924 247.577,278.463 264.091,251.651 287.706 C 244.323 294.161,243.224 295.497,234.166 308.962 C 229.100 316.493,225.833 322.380,224.503 326.375 C 223.684 328.832,220.501 330.058,212.146 331.132 C 210.979 331.282,208.591 331.608,206.840 331.855 C 192.315 333.908,178.608 332.211,170.066 327.303 C 167.863 326.037,167.859 326.063,170.401 325.212 C 175.141 323.626,178.535 321.519,180.710 318.816 C 181.574 317.742,183.175 315.759,184.268 314.409 C 193.158 303.434,194.267 291.132,187.622 277.198 C 184.077 269.763,181.322 266.780,173.385 261.777 C 171.031 260.294,169.105 258.993,169.104 258.887 C 169.104 258.780,169.433 258.215,169.835 257.630 L 170.567 256.567 170.012 255.941 C 169.707 255.597,168.762 254.571,167.911 253.660 C 167.061 252.750,165.681 251.263,164.845 250.357 C 164.009 249.451,162.630 247.965,161.779 247.055 C 160.928 246.145,159.549 244.658,158.713 243.751 C 157.877 242.844,157.138 242.048,157.070 241.982 C 156.907 241.825,147.910 231.912,146.161 229.962 L 144.799 228.443 144.124 228.842 L 143.449 229.241 140.413 226.354 C 128.397 214.927,115.847 208.283,101.315 205.655 C 94.963 204.506,97.087 205.765,104.746 207.690 C 116.425 210.624,129.632 218.251,139.191 227.581 L 141.984 230.307 139.232 233.373 C 127.308 246.658,118.477 262.193,114.496 276.887 C 114.268 277.730,114.006 278.505,113.915 278.609 C 113.671 278.887,103.716 278.831,101.147 278.537 C 64.957 274.393,42.977 246.471,45.728 208.137 C 46.628 195.601,48.416 189.846,54.302 180.545 C 65.658 162.602,84.347 148.577,117.925 132.805 C 136.729 123.971,142.692 120.870,144.394 119.039 L 145.274 118.092 146.318 119.055 C 150.343 122.764,156.960 117.796,159.663 109.036 C 160.081 107.683,160.101 107.662,161.234 107.393 C 162.715 107.042,163.443 107.016,163.443 107.313 M154.117 109.707 C 153.477 110.972,152.616 112.010,151.591 112.752 C 150.005 113.901,150.042 113.535,151.681 111.851 C 152.533 110.976,153.471 109.908,153.764 109.479 C 154.428 108.507,154.651 108.651,154.117 109.707 M204.371 111.199 C 205.120 111.781,206.088 112.323,206.523 112.405 C 207.175 112.527,207.393 112.735,207.775 113.598 C 208.029 114.173,208.465 114.963,208.743 115.354 C 209.022 115.745,209.211 116.094,209.165 116.130 C 207.763 117.199,207.404 117.196,207.201 116.113 C 206.953 114.789,205.721 113.679,204.499 113.679 C 203.384 113.679,203.100 113.253,202.889 111.262 C 202.744 109.898,202.698 109.900,204.371 111.199 M202.100 114.091 C 202.136 114.941,197.718 117.748,193.627 119.474 C 190.722 120.699,190.520 120.705,189.214 119.615 C 187.992 118.594,186.795 118.166,185.142 118.158 C 184.558 118.155,183.244 117.943,182.222 117.685 C 179.717 117.054,178.394 117.080,177.062 117.788 L 175.989 118.359 175.850 117.847 C 175.642 117.080,175.378 112.028,175.545 112.028 C 175.625 112.028,176.243 112.246,176.919 112.513 C 183.203 114.990,194.857 115.651,200.151 113.831 C 200.984 113.545,201.081 113.420,201.292 112.361 L 201.523 111.203 201.800 112.382 C 201.953 113.031,202.088 113.799,202.100 114.091 M205.460 115.585 C 205.896 115.818,206.604 117.110,206.604 117.672 C 206.604 118.574,201.988 122.463,198.821 124.231 C 192.254 127.896,184.766 128.136,180.661 124.812 L 180.076 124.338 181.253 124.190 C 184.234 123.815,183.926 123.754,184.200 124.770 C 184.643 126.418,185.736 126.202,185.467 124.520 L 185.323 123.623 187.296 123.005 C 188.381 122.666,189.441 122.336,189.650 122.273 C 189.909 122.195,190.127 122.386,190.324 122.863 C 190.631 123.603,191.403 124.022,191.775 123.650 C 191.908 123.516,191.863 123.123,191.658 122.635 L 191.323 121.838 193.690 120.779 L 196.056 119.720 196.581 120.378 C 197.187 121.137,198.042 121.146,197.921 120.392 C 197.705 119.046,197.710 119.039,199.619 118.105 L 201.479 117.196 201.940 117.691 C 202.612 118.413,202.961 118.160,202.873 117.012 C 202.773 115.711,204.212 114.917,205.460 115.585 M185.273 119.406 C 187.438 120.163,188.548 120.746,188.294 120.992 C 187.568 121.694,181.974 122.874,179.363 122.875 L 178.184 122.876 177.506 121.580 C 176.092 118.872,180.342 117.682,185.273 119.406 M230.826 118.927 C 233.154 119.967,233.854 122.446,232.345 124.309 L 231.913 124.843 231.762 123.919 C 231.305 121.113,226.730 119.940,225.133 122.219 C 224.824 122.661,222.855 121.815,222.885 121.254 C 222.979 119.515,228.514 117.893,230.826 118.927 M227.393 125.233 C 227.681 125.235,227.773 125.435,227.747 126.002 C 227.706 126.901,229.317 127.299,229.943 126.545 C 230.263 126.160,230.896 126.045,230.896 126.372 C 230.896 127.336,227.068 128.045,226.183 127.244 C 225.375 126.513,225.624 124.859,226.507 125.096 C 226.781 125.169,227.180 125.231,227.393 125.233 M259.198 188.208 C 249.033 188.729,238.439 190.302,230.542 192.463 C 230.153 192.570,229.570 192.729,229.245 192.817 C 209.636 198.129,190.596 210.670,187.633 220.224 C 187.376 221.052,187.583 220.879,189.049 219.045 C 199.407 206.077,217.095 196.288,237.500 192.232 C 247.563 190.232,254.647 189.560,266.002 189.528 C 273.960 189.505,274.086 189.497,273.148 189.088 C 271.001 188.151,266.203 187.849,259.198 188.208 M147.459 233.196 C 150.263 235.938,153.576 239.576,159.663 246.598 C 160.891 248.015,163.476 250.785,165.407 252.753 C 167.836 255.229,168.860 256.428,168.731 256.645 C 168.628 256.817,168.002 257.647,167.341 258.491 C 158.433 269.846,152.659 279.784,149.764 288.745 C 149.320 290.119,149.176 290.330,148.686 290.330 C 146.921 290.330,133.565 287.922,115.861 284.410 L 114.623 284.165 114.627 283.061 C 114.646 277.949,117.056 270.325,121.086 262.625 C 128.707 248.062,135.346 238.325,141.973 231.994 C 144.320 229.751,143.827 229.643,147.459 233.196 M287.325 259.316 C 290.529 263.272,292.684 267.014,293.954 270.828 L 294.567 272.671 293.923 273.243 C 290.247 276.502,285.486 278.752,273.507 282.891 C 267.489 284.970,266.165 285.473,263.031 286.868 L 260.614 287.944 260.013 286.674 C 259.683 285.976,259.108 285.078,258.736 284.680 L 258.059 283.956 259.272 282.603 C 260.485 281.250,265.349 276.002,268.067 273.113 C 274.313 266.477,279.370 259.943,282.098 254.984 L 282.665 253.953 284.040 255.455 C 284.796 256.282,286.274 258.019,287.325 259.316 M171.934 262.779 C 182.567 268.566,187.940 276.932,189.778 290.566 C 192.706 312.279,172.052 331.065,153.332 323.716 C 141.500 319.070,137.206 304.154,148.369 306.473 C 150.588 306.934,152.692 307.965,153.861 309.165 L 154.775 310.102 154.417 311.151 C 153.588 313.584,154.476 312.947,156.220 309.858 C 157.395 307.776,157.644 307.762,159.505 309.661 C 161.044 311.230,162.115 311.803,162.974 311.517 C 163.119 311.468,162.620 310.687,161.866 309.780 C 154.543 300.974,151.802 295.781,151.480 290.094 C 151.302 286.947,152.051 285.144,156.532 277.936 C 157.576 276.256,159.303 273.290,160.368 271.344 C 162.376 267.678,164.540 264.307,166.385 261.973 L 167.454 260.620 168.810 261.218 C 169.555 261.547,170.961 262.250,171.934 262.779 M257.364 285.554 C 262.945 291.919,246.489 311.525,234.235 313.111 L 232.975 313.274 233.499 312.238 C 236.065 307.167,241.372 300.737,251.533 290.389 C 257.082 284.739,256.831 284.947,257.364 285.554 M153.910 302.064 C 154.387 302.939,155.243 304.373,155.812 305.250 C 156.835 306.826,156.842 306.853,156.445 307.491 C 155.464 309.069,155.554 309.064,153.549 307.659 C 151.600 306.293,149.456 305.195,148.731 305.191 C 147.681 305.186,149.127 301.797,150.549 300.929 C 152.102 299.982,152.928 300.261,153.910 302.064 M161.633 326.573 L 165.836 326.704 167.883 327.995 C 172.157 330.691,174.272 331.482,180.037 332.541 C 194.150 335.131,212.597 333.983,224.028 329.802 C 227.225 328.632,226.974 328.527,227.195 331.132 C 228.075 341.475,226.398 354.753,223.417 361.052 L 222.595 362.788 220.673 363.676 C 219.615 364.165,217.158 365.329,215.212 366.263 C 204.239 371.532,199.775 372.747,191.392 372.751 C 177.422 372.757,165.040 368.164,156.824 359.927 C 152.503 355.596,152.149 353.907,153.854 345.755 C 154.746 341.493,155.058 338.880,155.304 333.608 C 155.383 331.922,155.562 329.551,155.703 328.339 L 155.960 326.135 156.695 326.288 C 157.099 326.372,159.321 326.500,161.633 326.573 "
       id="path2" />
    <path
       fill-rule="evenodd"
       fill="#0494d4"
       stroke="none"
       d="M319.693 317.022 C 316.677 317.356,311.615 318.452,310.024 319.115 C 309.764 319.223,308.862 319.552,308.019 319.846 C 305.949 320.569,302.615 322.217,300.653 323.486 C 299.767 324.059,298.948 324.528,298.833 324.528 C 298.718 324.528,298.589 324.614,298.546 324.719 C 298.502 324.824,297.936 325.268,297.288 325.707 C 295.113 327.177,294.256 327.930,290.573 331.604 C 283.354 338.803,277.703 347.489,273.233 358.255 C 272.883 359.098,272.453 360.106,272.278 360.495 C 270.950 363.450,268.483 372.249,267.716 376.769 C 267.584 377.547,267.317 379.086,267.123 380.189 C 266.307 384.831,266.156 387.589,266.161 397.759 C 266.164 403.949,266.283 409.234,266.466 411.321 C 266.630 413.202,266.915 416.492,267.099 418.632 C 267.283 420.772,267.567 424.063,267.732 425.943 C 267.903 427.911,268.033 433.069,268.036 438.090 C 268.043 447.156,267.899 449.192,266.927 453.774 C 266.666 455.006,266.401 456.279,266.339 456.604 C 266.197 457.347,265.402 460.162,264.942 461.550 C 263.971 464.481,261.471 469.764,260.002 471.990 C 259.552 472.672,259.054 473.432,258.896 473.678 C 256.520 477.373,250.474 484.137,247.642 486.271 C 247.188 486.613,246.631 487.077,246.406 487.302 C 245.754 487.952,241.362 491.038,241.089 491.038 C 240.952 491.038,240.806 491.126,240.763 491.234 C 240.688 491.418,238.373 492.749,236.557 493.650 C 228.609 497.594,218.589 498.946,211.439 497.038 C 210.660 496.831,209.833 496.621,209.600 496.573 C 207.843 496.209,200.943 493.093,200.943 492.663 C 200.943 492.565,200.732 492.417,200.473 492.335 C 200.214 492.253,199.869 492.055,199.707 491.896 C 199.544 491.736,198.933 491.274,198.349 490.870 C 197.099 490.004,194.287 487.274,193.004 485.680 C 192.506 485.062,191.913 484.350,191.686 484.097 C 191.460 483.845,191.142 483.339,190.980 482.975 C 190.819 482.610,190.607 482.311,190.508 482.311 C 190.410 482.311,190.330 482.213,190.330 482.092 C 190.330 481.972,189.962 481.256,189.513 480.500 C 185.347 473.506,183.976 462.496,186.168 453.656 C 187.224 449.400,187.404 448.845,188.924 445.165 C 190.166 442.158,194.030 434.768,196.939 429.835 C 197.551 428.797,198.987 426.356,200.130 424.410 C 201.273 422.465,202.268 420.820,202.342 420.755 C 202.416 420.690,202.734 420.159,203.048 419.575 C 203.363 418.992,203.687 418.461,203.768 418.396 C 203.850 418.331,204.099 417.907,204.323 417.453 C 204.547 416.999,205.152 415.953,205.667 415.130 C 206.182 414.306,206.604 413.593,206.604 413.544 C 206.604 413.496,207.059 412.684,207.615 411.740 C 208.493 410.249,211.456 404.346,212.738 401.533 C 214.795 397.019,217.312 389.436,218.845 383.137 C 220.407 376.718,221.376 371.775,222.321 365.389 L 222.470 364.386 217.974 366.627 C 215.502 367.859,213.417 368.868,213.341 368.868 C 213.265 368.868,212.699 369.091,212.085 369.363 C 199.610 374.890,186.493 375.820,174.514 372.027 C 173.055 371.565,171.293 370.930,170.600 370.617 C 169.907 370.303,168.782 369.795,168.101 369.488 C 164.796 367.994,160.516 365.091,157.093 362.022 C 154.796 359.961,154.717 359.913,154.717 360.579 C 154.717 360.958,154.560 362.156,154.369 363.240 C 154.177 364.325,153.904 365.902,153.762 366.745 C 153.399 368.900,153.063 370.714,152.823 371.816 C 152.188 374.732,152.010 375.504,151.632 377.005 C 150.297 382.295,149.107 386.522,148.477 388.208 C 148.259 388.791,147.996 389.587,147.892 389.976 C 147.731 390.582,146.373 394.164,145.747 395.637 C 145.637 395.896,145.231 396.851,144.844 397.759 C 144.458 398.667,143.806 400.259,143.394 401.297 C 142.983 402.335,142.451 403.613,142.212 404.137 C 141.543 405.608,138.522 412.755,137.034 416.392 C 136.927 416.651,136.671 417.251,136.463 417.724 C 136.255 418.198,136.085 418.659,136.085 418.750 C 136.085 418.841,135.931 419.249,135.742 419.658 C 135.274 420.674,134.251 423.306,132.794 427.241 C 132.122 429.057,131.482 430.755,131.372 431.014 C 131.262 431.274,131.117 431.698,131.051 431.958 C 130.985 432.217,130.328 434.180,129.591 436.321 C 125.195 449.080,124.099 459.736,125.732 473.821 C 126.004 476.165,126.387 478.244,127.394 482.842 C 127.731 484.381,128.926 488.711,129.363 489.976 C 130.680 493.788,131.231 495.294,131.624 496.165 C 131.872 496.715,132.075 497.226,132.075 497.301 C 132.075 497.484,135.073 503.793,135.374 504.245 C 135.503 504.440,135.928 505.183,136.317 505.896 C 137.662 508.365,139.739 511.675,140.565 512.667 C 140.695 512.824,140.802 513.054,140.802 513.178 C 140.802 513.302,140.888 513.439,140.993 513.483 C 141.098 513.526,141.651 514.198,142.223 514.976 C 142.795 515.755,143.754 516.975,144.353 517.689 C 144.952 518.402,145.646 519.236,145.894 519.542 C 148.053 522.204,155.649 529.107,158.967 531.423 C 159.895 532.071,163.278 534.271,163.797 534.565 C 164.057 534.712,164.693 535.080,165.212 535.384 C 166.318 536.030,172.079 538.915,172.265 538.915 C 172.335 538.915,172.952 539.167,173.637 539.476 C 175.381 540.261,179.284 541.646,181.368 542.218 C 181.952 542.378,182.840 542.660,183.343 542.845 C 183.846 543.029,184.311 543.126,184.376 543.061 C 184.442 542.995,184.680 543.040,184.905 543.160 C 185.759 543.617,191.989 544.698,197.288 545.309 C 200.341 545.661,213.370 545.659,216.274 545.307 C 217.506 545.157,219.416 544.927,220.519 544.796 C 224.693 544.299,229.534 543.465,232.075 542.804 C 232.789 542.618,234.858 542.099,236.675 541.650 C 238.491 541.201,240.560 540.666,241.274 540.461 C 241.987 540.256,242.743 540.045,242.954 539.992 C 243.843 539.771,250.712 537.430,252.123 536.869 C 261.664 533.069,268.228 529.291,276.024 523.113 C 279.895 520.046,285.789 513.745,289.041 509.198 C 289.551 508.485,290.050 507.866,290.149 507.822 C 290.249 507.779,290.330 507.650,290.330 507.536 C 290.330 507.421,290.902 506.448,291.601 505.374 C 293.341 502.699,296.934 496.030,296.934 495.477 C 296.934 495.378,297.212 494.690,297.551 493.948 C 298.552 491.759,299.826 488.193,300.696 485.142 C 300.862 484.558,301.084 483.815,301.189 483.491 C 302.310 480.029,303.588 473.142,304.298 466.745 C 304.695 463.169,304.690 448.153,304.292 444.929 C 304.131 443.632,303.890 441.669,303.755 440.566 C 303.418 437.815,302.951 435.098,302.111 431.014 C 301.845 429.717,301.526 428.098,301.403 427.417 C 301.280 426.736,301.068 425.569,300.932 424.823 C 300.795 424.077,300.583 422.857,300.460 422.111 C 300.337 421.365,300.130 420.118,300.000 419.340 C 299.214 414.622,298.082 406.698,297.658 402.948 C 295.421 383.139,296.418 367.114,300.596 355.732 C 301.966 351.997,304.504 347.027,305.895 345.352 C 306.026 345.195,306.132 345.003,306.132 344.925 C 306.132 344.589,308.611 341.625,310.376 339.851 C 313.595 336.615,321.825 331.132,323.463 331.132 C 323.544 331.132,324.109 330.905,324.718 330.627 C 327.177 329.506,334.421 327.621,338.208 327.116 C 339.310 326.970,340.849 326.750,341.627 326.628 C 342.406 326.507,345.983 326.339,349.578 326.256 C 353.173 326.172,356.062 326.021,355.999 325.919 C 355.806 325.606,349.850 322.406,349.461 322.406 C 349.352 322.406,348.659 322.127,347.921 321.786 C 346.007 320.901,345.865 320.846,343.514 320.064 C 335.143 317.280,326.875 316.224,319.693 317.022 "
       id="path3" />
    <path
       fill-rule="evenodd"
       fill="#fafafa"
       stroke="none"
       d="M183.633 81.472 C 183.344 82.625,184.011 85.989,184.854 87.625 C 186.530 90.880,191.152 91.953,193.325 89.592 C 193.869 89.000,195.047 86.536,195.047 85.988 C 195.047 85.384,190.130 82.578,189.027 82.553 C 188.886 82.550,188.822 82.941,188.874 83.485 C 188.950 84.277,188.853 84.532,188.250 85.135 C 186.518 86.868,184.218 85.095,184.203 82.017 C 184.198 80.824,183.873 80.515,183.633 81.472 M205.248 87.185 C 205.085 87.250,204.953 87.408,204.953 87.536 C 204.953 88.057,203.496 89.837,202.661 90.336 C 202.170 90.629,201.900 90.915,202.060 90.972 C 202.563 91.149,204.331 89.776,205.130 88.588 C 206.100 87.144,206.126 86.830,205.248 87.185 M179.481 102.125 C 179.481 102.448,178.609 104.295,177.658 105.985 C 176.997 107.161,175.943 109.858,175.943 110.376 C 175.943 110.545,177.847 111.440,178.715 111.678 C 179.145 111.797,179.245 111.729,179.245 111.321 C 179.245 110.624,179.666 109.906,180.075 109.906 C 180.469 109.906,180.770 110.875,180.590 111.563 C 180.406 112.268,181.198 112.539,185.705 113.319 L 186.623 113.477 186.498 112.547 C 186.345 111.402,186.558 111.020,187.291 111.123 C 187.779 111.192,187.863 111.348,187.925 112.299 C 187.993 113.352,188.029 113.402,188.843 113.554 C 190.362 113.839,193.101 113.460,193.235 112.946 C 193.390 112.355,194.254 112.371,194.575 112.972 C 194.979 113.725,199.535 113.210,200.177 112.338 C 200.645 111.703,200.564 110.761,200.059 110.967 C 193.354 113.698,182.295 109.095,180.182 102.692 C 179.936 101.946,179.481 101.578,179.481 102.125 M203.377 115.918 C 202.961 116.208,202.896 116.433,203.001 117.215 C 203.145 118.286,202.665 118.511,201.836 117.760 C 201.417 117.381,201.300 117.406,199.616 118.240 L 197.838 119.119 197.991 120.024 C 198.215 121.347,197.331 121.615,196.508 120.474 C 196.137 119.961,195.811 119.941,194.907 120.378 C 193.378 121.117,191.993 121.698,191.758 121.698 C 191.416 121.698,191.447 122.072,191.854 122.859 C 192.241 123.607,192.137 123.821,191.389 123.821 C 190.851 123.821,190.094 123.155,190.094 122.682 C 190.094 122.282,189.728 122.333,187.619 123.025 C 185.341 123.772,185.295 123.808,185.610 124.637 C 185.897 125.393,185.593 125.943,184.886 125.943 C 184.583 125.943,184.366 125.652,184.162 124.974 L 183.872 124.005 182.823 124.149 C 182.246 124.228,181.457 124.292,181.070 124.292 C 178.518 124.292,183.964 126.741,187.146 127.024 C 194.987 127.721,208.889 119.475,205.739 115.994 C 205.268 115.474,204.065 115.435,203.377 115.918 "
       id="path4" />
    <path
       fill-rule="evenodd"
       fill="#336e8a"
       stroke="none"
       d="M155.896 55.778 C 156.732 56.621,157.469 57.311,157.534 57.311 C 157.598 57.311,156.968 56.621,156.132 55.778 C 155.296 54.935,154.560 54.245,154.495 54.245 C 154.430 54.245,155.061 54.935,155.896 55.778 M186.321 72.420 C 186.321 72.946,186.406 73.324,186.511 73.259 C 186.694 73.146,186.602 71.462,186.413 71.462 C 186.362 71.462,186.321 71.893,186.321 72.420 M181.604 100.310 C 181.604 100.350,181.949 100.695,182.370 101.076 L 183.137 101.769 182.444 101.002 C 181.798 100.288,181.604 100.127,181.604 100.310 M184.788 101.179 C 185.294 101.698,185.762 102.123,185.827 102.123 C 185.892 102.123,185.530 101.698,185.024 101.179 C 184.517 100.660,184.049 100.236,183.984 100.236 C 183.920 100.236,184.281 100.660,184.788 101.179 M160.922 103.184 C 160.923 103.962,160.967 104.252,161.020 103.828 C 161.072 103.404,161.071 102.768,161.018 102.413 C 160.964 102.059,160.921 102.406,160.922 103.184 M183.255 104.791 C 183.255 104.831,183.600 105.176,184.021 105.557 L 184.788 106.250 184.095 105.483 C 183.449 104.769,183.255 104.609,183.255 104.791 M194.755 110.308 C 195.048 110.365,195.473 110.363,195.699 110.304 C 195.924 110.245,195.684 110.198,195.165 110.201 C 194.646 110.204,194.462 110.252,194.755 110.308 M151.874 111.733 L 151.061 112.618 151.946 111.805 C 152.769 111.049,152.939 110.849,152.759 110.849 C 152.719 110.849,152.321 111.247,151.874 111.733 M165.385 113.679 C 165.385 114.133,165.433 114.319,165.493 114.092 C 165.552 113.865,165.552 113.494,165.493 113.267 C 165.433 113.040,165.385 113.225,165.385 113.679 M187.205 128.944 C 187.627 128.997,188.317 128.997,188.738 128.944 C 189.160 128.892,188.815 128.849,187.972 128.849 C 187.129 128.849,186.784 128.892,187.205 128.944 M312.854 162.264 C 313.493 162.913,314.068 163.443,314.133 163.443 C 314.198 163.443,313.728 162.913,313.090 162.264 C 312.451 161.616,311.875 161.085,311.810 161.085 C 311.745 161.085,312.215 161.616,312.854 162.264 M65.913 166.097 L 64.269 167.807 65.979 166.162 C 67.567 164.634,67.796 164.387,67.623 164.387 C 67.587 164.387,66.818 165.156,65.913 166.097 M260.908 188.141 C 261.265 188.195,261.848 188.195,262.205 188.141 C 262.562 188.087,262.270 188.042,261.557 188.042 C 260.843 188.042,260.551 188.087,260.908 188.141 M262.795 189.556 C 263.152 189.610,263.735 189.610,264.092 189.556 C 264.449 189.502,264.157 189.457,263.443 189.457 C 262.730 189.457,262.438 189.502,262.795 189.556 M268.930 189.556 C 269.289 189.610,269.819 189.609,270.109 189.553 C 270.399 189.497,270.106 189.452,269.458 189.454 C 268.809 189.456,268.572 189.502,268.930 189.556 M328.613 204.009 C 328.613 204.853,328.656 205.198,328.708 204.776 C 328.761 204.354,328.761 203.665,328.708 203.243 C 328.656 202.821,328.613 203.166,328.613 204.009 M328.611 208.844 C 328.612 209.623,328.656 209.913,328.709 209.489 C 328.761 209.065,328.760 208.428,328.706 208.074 C 328.652 207.719,328.609 208.066,328.611 208.844 M45.611 213.915 C 45.611 215.666,45.648 216.383,45.694 215.507 C 45.739 214.631,45.739 213.199,45.694 212.323 C 45.648 211.448,45.611 212.164,45.611 213.915 M62.500 260.495 C 62.940 260.949,63.353 261.321,63.418 261.321 C 63.483 261.321,63.176 260.949,62.736 260.495 C 62.296 260.041,61.883 259.670,61.818 259.670 C 61.753 259.670,62.060 260.041,62.500 260.495 M159.729 325.163 C 159.956 325.222,160.327 325.222,160.554 325.163 C 160.781 325.103,160.596 325.055,160.142 325.055 C 159.688 325.055,159.502 325.103,159.729 325.163 M162.559 325.163 C 162.786 325.222,163.157 325.222,163.384 325.163 C 163.611 325.103,163.426 325.055,162.972 325.055 C 162.518 325.055,162.332 325.103,162.559 325.163 M198.172 332.710 C 198.399 332.769,198.771 332.769,198.998 332.710 C 199.225 332.650,199.039 332.602,198.585 332.602 C 198.131 332.602,197.945 332.650,198.172 332.710 M155.660 360.731 C 156.100 361.185,156.514 361.557,156.578 361.557 C 156.643 361.557,156.336 361.185,155.896 360.731 C 155.456 360.277,155.043 359.906,154.978 359.906 C 154.913 359.906,155.220 360.277,155.660 360.731 "
       id="path5" />
    <path
       fill-rule="evenodd"
       fill="#3c8cb4"
       stroke="none"
       d="M154.334 71.462 C 154.334 72.954,154.373 73.564,154.420 72.818 C 154.466 72.073,154.466 70.852,154.420 70.106 C 154.373 69.360,154.334 69.971,154.334 71.462 M195.519 84.508 C 195.519 84.548,195.864 84.893,196.285 85.274 L 197.052 85.967 196.359 85.200 C 195.713 84.486,195.519 84.326,195.519 84.508 M205.719 93.093 C 206.076 93.147,206.660 93.147,207.017 93.093 C 207.373 93.039,207.081 92.995,206.368 92.995 C 205.654 92.995,205.363 93.039,205.719 93.093 M208.797 105.189 C 208.797 105.902,208.841 106.194,208.895 105.837 C 208.949 105.481,208.949 104.897,208.895 104.540 C 208.841 104.183,208.797 104.475,208.797 105.189 M174.357 115.094 C 174.357 115.678,174.403 115.917,174.459 115.625 C 174.515 115.333,174.515 114.856,174.459 114.564 C 174.403 114.272,174.357 114.511,174.357 115.094 M211.383 116.915 C 211.741 116.969,212.272 116.967,212.562 116.911 C 212.852 116.855,212.559 116.811,211.910 116.813 C 211.262 116.815,211.024 116.860,211.383 116.915 M213.994 119.104 C 213.994 120.077,214.036 120.475,214.087 119.988 C 214.138 119.502,214.138 118.706,214.087 118.219 C 214.036 117.733,213.994 118.131,213.994 119.104 M168.240 123.113 C 168.240 124.086,168.281 124.484,168.332 123.998 C 168.383 123.511,168.383 122.715,168.332 122.229 C 168.281 121.742,168.240 122.140,168.240 123.113 M210.960 134.965 L 209.552 136.439 211.026 135.031 C 211.837 134.257,212.500 133.593,212.500 133.557 C 212.500 133.383,212.267 133.595,210.960 134.965 M167.915 138.738 C 168.493 139.354,168.997 139.858,169.035 139.858 C 169.212 139.858,169.025 139.647,167.983 138.669 L 166.863 137.618 167.915 138.738 M269.811 155.970 C 269.811 156.011,270.156 156.356,270.578 156.737 L 271.344 157.429 270.652 156.663 C 270.006 155.948,269.811 155.788,269.811 155.970 M265.507 189.559 C 266.058 189.609,266.960 189.609,267.512 189.559 C 268.063 189.510,267.612 189.469,266.509 189.469 C 265.407 189.469,264.956 189.510,265.507 189.559 M273.585 189.623 L 272.995 189.811 273.644 189.835 C 274.001 189.848,274.292 189.752,274.292 189.623 C 274.292 189.493,274.266 189.397,274.233 189.410 C 274.201 189.423,273.909 189.519,273.585 189.623 M258.434 189.789 C 258.728 189.846,259.152 189.844,259.378 189.785 C 259.603 189.726,259.363 189.680,258.844 189.682 C 258.325 189.685,258.141 189.733,258.434 189.789 M328.605 206.486 C 328.607 207.134,328.653 207.372,328.707 207.013 C 328.761 206.655,328.760 206.124,328.704 205.834 C 328.648 205.544,328.603 205.837,328.605 206.486 M192.088 213.031 L 191.156 214.033 192.158 213.101 C 192.709 212.588,193.160 212.137,193.160 212.098 C 193.160 211.920,192.955 212.098,192.088 213.031 M294.193 215.802 C 294.193 217.294,294.231 217.904,294.278 217.158 C 294.325 216.412,294.325 215.192,294.278 214.446 C 294.231 213.700,294.193 214.310,294.193 215.802 M192.676 215.035 L 191.863 215.920 192.748 215.107 C 193.234 214.660,193.632 214.262,193.632 214.223 C 193.632 214.043,193.432 214.212,192.676 215.035 M140.403 228.964 C 141.148 229.717,141.676 230.424,141.575 230.535 C 141.474 230.645,141.535 230.653,141.710 230.552 C 141.991 230.389,139.587 227.594,139.166 227.594 C 139.101 227.594,139.658 228.211,140.403 228.964 M308.483 254.422 L 307.193 255.778 308.550 254.489 C 309.295 253.780,309.906 253.170,309.906 253.133 C 309.906 252.958,309.680 253.162,308.483 254.422 M167.689 253.376 C 167.689 253.416,168.034 253.761,168.455 254.142 L 169.222 254.835 168.529 254.068 C 167.883 253.354,167.689 253.193,167.689 253.376 M263.910 276.120 L 261.910 278.184 263.974 276.184 C 265.109 275.085,266.038 274.156,266.038 274.121 C 266.038 273.949,265.767 274.204,263.910 276.120 M189.934 295.047 C 189.934 295.890,189.977 296.235,190.029 295.814 C 190.081 295.392,190.081 294.702,190.029 294.281 C 189.977 293.859,189.934 294.204,189.934 295.047 M246.450 295.696 L 245.637 296.580 246.521 295.767 C 247.008 295.320,247.406 294.922,247.406 294.883 C 247.406 294.703,247.206 294.873,246.450 295.696 M161.144 325.163 C 161.371 325.222,161.742 325.222,161.969 325.163 C 162.196 325.103,162.011 325.055,161.557 325.055 C 161.103 325.055,160.917 325.103,161.144 325.163 M192.868 332.714 C 193.162 332.770,193.586 332.768,193.812 332.709 C 194.037 332.650,193.797 332.604,193.278 332.607 C 192.759 332.609,192.575 332.658,192.868 332.714 M196.757 332.710 C 196.984 332.769,197.356 332.769,197.583 332.710 C 197.810 332.650,197.624 332.602,197.170 332.602 C 196.716 332.602,196.530 332.650,196.757 332.710 "
       id="path6" />
    <path
       fill-rule="evenodd"
       fill="#6e6257"
       stroke="none"
       d="M184.379 47.341 C 184.803 47.393,185.440 47.392,185.794 47.338 C 186.149 47.285,185.802 47.242,185.024 47.243 C 184.245 47.244,183.955 47.288,184.379 47.341 M204.113 80.248 L 203.420 81.014 204.186 80.321 C 204.608 79.940,204.953 79.596,204.953 79.555 C 204.953 79.373,204.758 79.533,204.113 80.248 M207.379 81.722 C 207.381 82.370,207.426 82.608,207.481 82.249 C 207.535 81.891,207.533 81.360,207.477 81.070 C 207.421 80.780,207.377 81.073,207.379 81.722 M208.754 81.781 C 208.725 82.345,209.058 82.492,209.339 82.039 C 209.439 81.877,209.404 81.831,209.252 81.924 C 209.112 82.010,208.949 81.894,208.890 81.666 C 208.807 81.349,208.775 81.377,208.754 81.781 M185.613 92.571 C 186.053 93.025,186.466 93.396,186.531 93.396 C 186.596 93.396,186.289 93.025,185.849 92.571 C 185.409 92.117,184.996 91.745,184.931 91.745 C 184.866 91.745,185.173 92.117,185.613 92.571 M209.729 92.851 C 209.956 92.911,210.327 92.911,210.554 92.851 C 210.781 92.792,210.596 92.743,210.142 92.743 C 209.688 92.743,209.502 92.792,209.729 92.851 M211.428 102.653 L 210.495 103.656 211.498 102.723 C 212.430 101.856,212.608 101.651,212.430 101.651 C 212.391 101.651,211.940 102.102,211.428 102.653 M194.870 113.606 C 195.097 113.665,195.469 113.665,195.696 113.606 C 195.923 113.547,195.737 113.498,195.283 113.498 C 194.829 113.498,194.643 113.547,194.870 113.606 M187.795 141.908 C 188.022 141.967,188.393 141.967,188.620 141.908 C 188.847 141.849,188.662 141.800,188.208 141.800 C 187.754 141.800,187.568 141.849,187.795 141.908 M140.802 226.725 C 140.802 226.765,141.147 227.110,141.568 227.491 L 142.335 228.184 141.642 227.417 C 140.996 226.703,140.802 226.543,140.802 226.725 M135.849 238.679 C 135.438 239.198,135.155 239.623,135.220 239.623 C 135.285 239.623,135.674 239.198,136.085 238.679 C 136.496 238.160,136.779 237.736,136.714 237.736 C 136.649 237.736,136.260 238.160,135.849 238.679 M133.019 242.453 C 132.742 242.842,132.568 243.160,132.633 243.160 C 132.698 243.160,132.978 242.842,133.255 242.453 C 133.532 242.064,133.705 241.745,133.641 241.745 C 133.576 241.745,133.296 242.064,133.019 242.453 M130.750 245.814 C 129.938 247.191,129.886 247.309,130.299 246.816 C 130.778 246.245,131.191 245.519,131.036 245.519 C 130.975 245.519,130.846 245.652,130.750 245.814 M128.392 249.587 C 127.580 250.965,127.527 251.082,127.941 250.590 C 128.420 250.019,128.833 249.292,128.678 249.292 C 128.616 249.292,128.487 249.425,128.392 249.587 M283.968 255.542 C 284.510 256.306,286.086 258.023,286.074 257.837 C 286.068 257.742,285.517 257.081,284.849 256.368 C 284.181 255.654,283.784 255.283,283.968 255.542 M287.026 259.195 C 287.435 259.712,287.893 260.211,288.044 260.304 C 288.195 260.397,287.909 259.974,287.409 259.364 C 286.909 258.754,286.451 258.255,286.390 258.255 C 286.330 258.255,286.616 258.678,287.026 259.195 M277.482 262.051 C 277.007 262.713,276.654 263.289,276.697 263.332 C 276.740 263.376,277.179 262.835,277.671 262.130 C 278.163 261.425,278.517 260.849,278.456 260.849 C 278.396 260.849,277.957 261.390,277.482 262.051 M289.679 262.717 C 290.101 263.355,290.484 263.840,290.529 263.795 C 290.625 263.699,289.181 261.557,289.020 261.557 C 288.960 261.557,289.257 262.079,289.679 262.717 M162.736 264.387 C 162.459 264.776,162.285 265.094,162.350 265.094 C 162.415 265.094,162.695 264.776,162.972 264.387 C 163.249 263.998,163.422 263.679,163.358 263.679 C 163.293 263.679,163.013 263.998,162.736 264.387 M275.462 264.682 C 275.023 265.233,274.851 265.534,275.079 265.351 C 275.509 265.006,276.519 263.679,276.353 263.679 C 276.301 263.679,275.900 264.130,275.462 264.682 M273.330 267.276 C 272.632 268.087,272.248 268.602,272.476 268.420 C 272.957 268.039,274.860 265.802,274.704 265.802 C 274.646 265.802,274.028 266.465,273.330 267.276 M160.904 266.922 C 160.293 267.804,160.095 268.160,160.214 268.160 C 160.269 268.160,160.596 267.736,160.939 267.217 C 161.637 266.162,161.606 265.907,160.904 266.922 M270.873 270.047 C 270.234 270.696,269.813 271.216,269.938 271.202 C 270.160 271.179,272.335 268.868,272.135 268.868 C 272.080 268.868,271.511 269.399,270.873 270.047 M268.034 273.172 L 266.863 274.410 268.101 273.240 C 269.252 272.152,269.448 271.934,269.272 271.934 C 269.234 271.934,268.677 272.491,268.034 273.172 M265.201 276.238 L 264.269 277.241 265.271 276.308 C 266.203 275.441,266.382 275.236,266.204 275.236 C 266.165 275.236,265.714 275.687,265.201 276.238 M254.592 287.323 L 253.184 288.797 254.658 287.389 C 255.469 286.615,256.132 285.952,256.132 285.915 C 256.132 285.741,255.899 285.954,254.592 287.323 M251.291 290.625 L 249.646 292.335 251.356 290.690 C 252.944 289.163,253.174 288.915,253.001 288.915 C 252.965 288.915,252.195 289.685,251.291 290.625 "
       id="path7" />
    <path
       fill-rule="evenodd"
       fill="#979797"
       stroke="none"
       d="M183.019 106.958 C 183.459 107.412,183.872 107.783,183.937 107.783 C 184.002 107.783,183.695 107.412,183.255 106.958 C 182.815 106.504,182.402 106.132,182.337 106.132 C 182.272 106.132,182.579 106.504,183.019 106.958 M187.724 112.093 C 187.839 113.065,187.844 113.070,187.924 112.293 C 187.969 111.855,187.916 111.407,187.806 111.297 C 187.697 111.187,187.660 111.545,187.724 112.093 M194.402 111.726 C 194.760 111.780,195.291 111.779,195.581 111.723 C 195.871 111.667,195.578 111.622,194.929 111.624 C 194.281 111.626,194.043 111.672,194.402 111.726 M191.686 113.610 C 191.978 113.666,192.456 113.666,192.748 113.610 C 193.040 113.554,192.801 113.508,192.217 113.508 C 191.633 113.508,191.394 113.554,191.686 113.610 M204.584 119.870 L 203.892 120.637 204.658 119.944 C 205.080 119.563,205.425 119.218,205.425 119.178 C 205.425 118.995,205.230 119.156,204.584 119.870 M137.277 237.182 C 135.980 238.674,132.798 243.013,131.223 245.437 C 128.996 248.864,127.296 251.671,127.396 251.752 C 127.440 251.788,130.395 253.571,133.962 255.715 C 137.529 257.858,144.523 262.068,149.504 265.069 C 154.485 268.071,158.582 270.499,158.608 270.464 C 158.634 270.429,159.169 269.605,159.796 268.632 C 160.423 267.659,161.826 265.658,162.914 264.185 C 164.002 262.712,164.944 261.373,165.007 261.208 C 165.212 260.675,153.246 249.101,147.183 243.966 C 146.735 243.588,145.939 242.902,145.414 242.442 C 143.019 240.347,138.202 236.557,137.934 236.557 C 137.872 236.557,137.576 236.838,137.277 237.182 M282.363 256.196 C 281.370 256.822,280.750 257.543,279.070 260.029 C 277.931 261.712,276.822 263.302,276.605 263.561 C 276.387 263.821,275.651 264.723,274.967 265.566 C 273.398 267.503,270.687 270.557,268.373 272.994 C 266.158 275.327,264.664 277.020,264.976 276.841 C 265.425 276.584,271.289 273.821,271.385 273.821 C 272.238 273.821,290.330 264.324,290.330 263.876 C 290.330 263.368,287.296 259.322,285.259 257.114 C 284.741 256.552,284.231 255.942,284.127 255.758 C 283.865 255.294,283.747 255.323,282.363 256.196 "
       id="path8" />
  </g>
  <path
     id="path844"
     d="m 147.17197,290.13961 c -4.02975,-0.55739 -21.09514,-3.71316 -32.25953,-5.9655 l -0.3003,-0.0606 0.059,-1.30813 c 0.20748,-4.59791 1.6014,-9.62699 4.35097,-15.69776 2.034,-4.49087 7.02562,-13.68298 8.10227,-14.92041 l 0.30278,-0.348 0.3023,0.18356 c 0.16627,0.10095 7.16492,4.31189 15.55256,9.35764 8.38764,5.04575 15.26118,9.18194 15.27453,9.19153 0.0134,0.01 -0.46809,0.8088 -1.06986,1.77604 -1.40676,2.26105 -2.17801,3.64975 -3.54376,6.38082 -1.91576,3.83091 -2.76556,5.8122 -3.94465,9.19694 -0.37794,1.08492 -0.75692,2.04966 -0.84218,2.14387 -0.12777,0.14119 -0.26525,0.16937 -0.78226,0.16038 -0.34499,-0.006 -0.88585,-0.0467 -1.2019,-0.0904 z"
     style="fill:#ffc739;stroke-width:0.0884073;fill-opacity:1" />
  <path
     id="path846"
     d="m 165.02789,260.61591 c -0.21752,-0.15577 -1.5492,-1.42186 -2.9593,-2.81353 -9.24182,-9.12108 -15.70735,-14.9058 -22.92246,-20.50874 -1.02563,-0.79647 -1.16021,-0.93027 -1.0632,-1.05703 0.7865,-1.02776 3.87209,-4.21077 5.14657,-5.30907 0.61056,-0.52616 0.91841,-0.57526 1.46065,-0.23296 0.47474,0.29969 3.71069,3.48551 5.82921,5.73891 2.05916,2.19026 3.98597,4.33599 7.39345,8.23349 2.75201,3.14777 4.78237,5.3745 6.89157,7.55812 2.90686,3.00942 3.12896,3.24912 3.61809,3.90484 0.22992,0.30822 0.23526,0.33771 0.1122,0.61885 -0.0711,0.16236 -0.73183,1.06877 -1.46835,2.01424 -0.73652,0.94547 -1.40749,1.81287 -1.49103,1.92756 l -0.15191,0.20853 z"
     style="fill:#ffc739;fill-opacity:1;stroke-width:0.0884073" />
  <path
     id="path848"
     d="m 260.13674,286.86851 c -0.54113,-1.09847 -0.9917,-1.79115 -1.61486,-2.4826 l -0.39297,-0.43603 0.82495,-0.92678 c 1.86868,-2.09939 4.38882,-4.78239 4.87749,-5.19269 0.28719,-0.24114 0.7703,-0.59969 1.07358,-0.79679 0.81583,-0.5302 5.64328,-2.8649 6.73139,-3.2555 1.09634,-0.39355 4.66311,-2.17057 10.7523,-5.35695 4.72274,-2.47133 5.88771,-3.09845 7.08648,-3.81473 0.82742,-0.49438 1.07567,-0.61603 1.155,-0.56599 0.0556,0.0351 0.36612,0.52527 0.69009,1.08935 1.01712,1.77098 2.08371,4.1695 2.79438,6.28397 0.22091,0.65725 0.40164,1.211 0.40164,1.23055 0,0.0582 -1.36018,1.21249 -2.00042,1.69764 -1.97104,1.49356 -4.44609,2.86187 -7.71965,4.26776 -2.873,1.23387 -5.84256,2.344 -12.25338,4.58078 -5.40095,1.88442 -6.62672,2.35798 -10.05349,3.884 -0.93446,0.41613 -1.73285,0.76983 -1.7742,0.786 -0.0465,0.0182 -0.26703,-0.36005 -0.57833,-0.99199 z"
     style="fill:#ffc739;fill-opacity:1;stroke-width:0.0625134" />
  <path
     id="path850"
     d="m 281.28422,256.4502 c 0.18191,-0.30085 0.55055,-0.93432 0.81919,-1.40772 0.26865,-0.47339 0.51785,-0.87889 0.55379,-0.90109 0.0359,-0.0222 0.27329,0.17653 0.52747,0.44165 0.53304,0.55595 0.55218,0.65936 0.17291,0.9341 -0.27255,0.19743 -2.33222,1.48005 -2.37671,1.48005 -0.0151,0 0.12144,-0.24614 0.30335,-0.54699 z"
     style="fill:#ffc739;fill-opacity:1;stroke-width:0.0625134" />
  <path
     id="path852"
     d="m 179.41074,371.12993 c -9.34848,-1.99528 -19.88986,-8.04607 -24.20352,-13.89289 -1.9204,-2.60296 -2.05468,-6.02082 -0.56127,-14.28634 0.56226,-3.11193 1.03775,-7.40852 1.05663,-9.54798 0.0593,-6.72296 0.15803,-6.84673 5.1898,-6.50798 3.1149,0.2097 5.80359,0.99355 9.34449,2.72423 7.28495,3.56067 15.47253,4.73188 29.68436,4.24626 10.9157,-0.37299 21.46,-2.04663 25.07156,-3.97948 1.22265,-0.65434 1.48039,-0.50057 1.88888,1.12698 1.34895,5.37464 -1.51686,26.13532 -4.1658,30.17811 -1.28859,1.96664 -14.86905,8.33888 -21.35191,10.01876 -5.26124,1.36334 -15.36407,1.32667 -21.95322,-0.0797 z"
     style="fill:#ff2507;fill-opacity:1;stroke-width:0.707;stroke-miterlimit:4;stroke-dasharray:none" />
  <path
     id="path854"
     d="m 190.09109,120.08634 c -0.19234,-0.0736 -0.62995,-0.34731 -0.97248,-0.60817 -1.24051,-0.94474 -2.06521,-1.23285 -3.94099,-1.37679 -1.07481,-0.0825 -2.01126,-0.24482 -3.84278,-0.66619 -0.34037,-0.0783 -1.07636,-0.1648 -1.63554,-0.19221 -1.23201,-0.0604 -1.76009,0.054 -2.90555,0.62927 l -0.79143,0.39748 -0.0937,-0.41677 c -0.19736,-0.87795 -0.48769,-5.76542 -0.34249,-5.76542 0.0275,0 0.58597,0.19722 1.24104,0.43827 3.46508,1.27505 6.90397,1.96287 11.54951,2.31003 2.03946,0.15241 6.40301,0.0576 8.13999,-0.1769 1.53438,-0.20713 3.37905,-0.6356 3.97309,-0.92284 0.53615,-0.25925 0.68434,-0.50055 0.87668,-1.42754 0.0908,-0.43761 0.18947,-0.73599 0.21926,-0.66305 0.13955,0.34163 0.41222,1.81511 0.41222,2.22754 0,0.44984 -0.0137,0.47452 -0.55254,0.99608 -0.72527,0.70198 -1.79615,1.4224 -3.69101,2.48308 -1.76968,0.99061 -3.39612,1.78794 -4.8624,2.38369 -0.84691,0.34411 -1.13478,0.41903 -1.72394,0.4487 -0.49355,0.0249 -0.81292,-0.005 -1.05695,-0.0983 z"
     style="fill:#350302;fill-opacity:1;stroke-width:0.0884073" />
  <path
     id="path856"
     d="m 177.77404,121.97628 c -0.66016,-1.29528 -0.63541,-1.88204 0.1069,-2.5338 1.20064,-1.05417 4.90041,-0.91581 8.17169,0.30561 1.30244,0.4863 2.22218,0.97544 2.22218,1.18181 0,0.11468 -1.00468,0.51449 -1.97957,0.78776 -2.03711,0.57103 -4.73189,1.00883 -6.86116,1.11469 l -1.1935,0.0593 z"
     style="fill:#ffabab;fill-opacity:1;stroke-width:0.0884073" />
  <path
     id="path858"
     d="m 143.16782,261.08304 c -8.45262,-5.08672 -15.40224,-9.35009 -15.4436,-9.47415 -0.23424,-0.70274 9.50192,-14.8228 10.22358,-14.82693 0.30348,-0.002 4.8196,3.58145 8.33322,6.61176 5.116,4.41227 9.18966,8.18899 14.22331,13.18653 l 4.46561,4.43357 -1.11237,1.57403 c -2.29938,3.2537 -4.82702,6.90056 -5.06978,7.31465 -0.22054,0.3762 -2.1469,-0.71148 -15.61997,-8.81946 z"
     style="fill:#ffef92;fill-opacity:1;stroke-width:0.250053" />
  <path
     id="path860"
     d="m 266.44723,275.35705 c 0.47591,-0.55505 2.19746,-2.4571 3.82567,-4.22677 3.45073,-3.75055 6.3814,-7.3629 9.10212,-11.2193 1.348,-1.91069 2.30776,-2.996 3.14309,-3.55428 l 1.20253,-0.80369 1.55065,1.8039 c 2.68117,3.11904 5.08809,6.34803 4.88272,6.55038 -0.93009,0.91642 -20.73011,10.98196 -24.30963,12.35805 -0.14434,0.0555 0.12694,-0.35324 0.60285,-0.90829 z"
     style="fill:#ffef92;fill-opacity:1;stroke-width:0.250053" />
  <path
     id="path862"
     d="m 148.30912,118.88771 c -1.38325,-0.64652 -2.15763,-2.34901 -2.30112,-5.0591 -0.15769,-2.97826 0.56751,-6.09215 2.186,-9.38621 0.76352,-1.55398 2.42423,-3.96789 2.81359,-4.08966 0.21019,-0.0657 0.60511,0.68122 0.60511,1.14453 0,0.16184 -0.55548,1.46198 -1.2344,2.88919 -2.07306,4.35798 -2.87703,7.34659 -2.48471,9.23642 0.25885,1.24687 0.67337,1.62399 1.76732,1.60787 0.93059,-0.0137 2.06621,-0.58049 2.86635,-1.43057 0.85943,-0.91308 2.06649,-3.08652 3.16663,-5.70186 0.59689,-1.419 1.40358,-3.33588 1.79262,-4.25973 0.87466,-2.07701 1.35885,-2.81498 1.58353,-2.4135 0.34104,0.60941 0.3735,3.04917 0.0651,4.89352 -1.28303,7.67303 -7.02878,14.3439 -10.82603,12.5691 z"
     style="fill:#ffc739;fill-opacity:1;stroke-width:0.176815" />
  <path
     id="path864"
     d="m 171.50744,51.012231 c -0.044,-0.01841 -0.15629,-0.178525 -0.24948,-0.355817 -0.1476,-0.280829 -0.1695,-0.394817 -0.17,-0.88497 -5.1e-4,-0.500689 0.0207,-0.607348 0.19314,-0.968957 0.77042,-1.615983 2.74376,-2.552979 4.03914,-1.91789 0.37657,0.184619 1.04626,0.823541 0.95313,0.909331 -0.19884,0.183159 -3.86138,2.885307 -4.09621,3.022096 -0.30965,0.180371 -0.54363,0.248921 -0.66972,0.196207 z"
     style="fill:#ff2507;fill-opacity:1;stroke-width:0.0625134" />
</svg>
